<svg width="183" height="275" viewBox="0 0 183 275" fill="none" xmlns="http://www.w3.org/2000/svg">
<g filter="url(#filter0_i_115_8914)">
<rect width="183" height="275" rx="20" fill="#FFF2D0"/>
</g>
<rect x="0.5" y="0.5" width="182" height="274" rx="19.5" stroke="black"/>
<mask id="mask0_115_8914" style="mask-type:alpha" maskUnits="userSpaceOnUse" x="2" y="2" width="179" height="271">
<path d="M2 20C2 10.0589 10.0589 2 20 2H163C172.941 2 181 10.0589 181 20V255C181 264.941 172.941 273 163 273H20C10.0589 273 2 264.941 2 255V20Z" fill="#FFF2D0"/>
</mask>
<g mask="url(#mask0_115_8914)">
<path d="M19.3862 122.961L18.3447 121.772C18.2087 121.618 18.0508 121.533 17.8833 121.513L7.20312 120.226C7.36767 120.246 7.52854 120.331 7.66453 120.484L8.70603 121.673C8.84202 121.827 8.99995 121.912 9.16743 121.932L19.8476 123.219C19.6831 123.199 19.5222 123.114 19.3862 122.961Z" fill="#FF4085" stroke="black" stroke-linecap="round" stroke-linejoin="round"/>
<path d="M26.2277 117.782L25.1865 116.59C25.0535 116.436 24.8926 116.351 24.731 116.332L14.0508 115.045C14.2153 115.064 14.3732 115.149 14.5063 115.302L15.5475 116.494C15.6805 116.648 15.8414 116.733 16.006 116.752L26.6862 118.04C26.5213 118.023 26.3637 117.935 26.2277 117.782Z" fill="#FF4085" stroke="black" stroke-linecap="round" stroke-linejoin="round"/>
<path d="M22.6153 172.388L11.9351 171.1C11.6119 171.062 11.2661 171.273 11.0356 171.696L10.1266 173.373C9.89578 173.798 9.55027 174.007 9.22707 173.968L19.9073 175.255C20.2305 175.294 20.5763 175.082 20.8068 174.66L21.7158 172.983C21.9466 172.557 22.2921 172.349 22.6153 172.388Z" fill="black"/>
<path d="M29.7696 174.069L19.0894 172.782C18.7662 172.743 18.4204 172.955 18.1899 173.377L17.2809 175.054C17.0501 175.48 16.7046 175.688 16.3814 175.649L27.0616 176.937C27.3848 176.976 27.7306 176.764 27.9611 176.342L28.8701 174.665C29.1009 174.239 29.4464 174.03 29.7696 174.069Z" fill="black"/>
<path d="M33.3868 119.468L29.8496 115.427C29.7166 115.274 29.5557 115.189 29.3911 115.169L18.7109 113.882C18.8755 113.901 19.0334 113.986 19.1694 114.14L22.7066 118.18C22.8396 118.334 22.9975 118.418 23.1621 118.438L33.8423 119.725C33.6777 119.705 33.5198 119.621 33.3868 119.468Z" fill="#FF4085" stroke="black" stroke-linecap="round" stroke-linejoin="round"/>
<path d="M36.6119 168.893L25.9317 167.605C25.6085 167.566 25.2627 167.778 25.0321 168.2L21.9494 173.891C21.7183 174.319 21.3695 174.53 21.0463 174.491L31.7265 175.779C32.0497 175.818 32.3955 175.606 32.6296 175.178L35.7123 169.488C35.9432 169.062 36.2887 168.854 36.6119 168.893Z" fill="black"/>
<path d="M36.1268 153.002C36.5266 153.456 36.5656 154.355 36.2206 154.995L28.7904 168.712C28.4419 169.358 27.8315 169.509 27.4318 169.055L26.3906 167.863C25.9908 167.409 25.3805 167.561 25.0355 168.201L21.9528 173.891C21.6043 174.536 20.991 174.688 20.5942 174.234L19.553 173.042C19.1535 172.585 18.5402 172.736 18.195 173.379L17.286 175.056C16.9378 175.699 16.3274 175.85 15.9309 175.393L12.3964 171.356C11.9967 170.902 11.3863 171.054 11.0384 171.693L10.1295 173.37C9.78158 174.01 9.1709 174.165 8.77145 173.707L0.250913 163.973C-0.148832 163.519 -0.18784 162.62 0.157119 161.98L1.06605 160.303C1.41395 159.663 1.372 158.764 0.972254 158.31L-2.5649 154.269C-2.96465 153.815 -3.00366 152.915 -2.6587 152.276L-1.74976 150.599C-1.40186 149.959 -1.44381 149.059 -1.84355 148.605L-2.88475 147.413C-3.2845 146.959 -3.3235 146.06 -2.975 145.414L0.107702 139.724C0.455605 139.084 0.413653 138.185 0.0142085 137.727L-1.02729 136.538C-1.42674 136.081 -1.46869 135.182 -1.12048 134.539L6.30974 120.822C6.65764 120.182 7.26832 120.028 7.66776 120.485L8.70926 121.674C9.1087 122.131 9.72202 121.98 10.0673 121.337L13.15 115.646C13.4985 115.001 14.1089 114.849 14.5086 115.303L15.5498 116.495C15.9495 116.95 16.5599 116.798 16.9078 116.158L17.8168 114.481C18.1647 113.842 18.7753 113.687 19.1718 114.144L22.709 118.184C23.1087 118.639 23.7191 118.487 24.0676 117.841L24.9733 116.167C25.3218 115.522 25.9322 115.37 26.3319 115.824L34.8525 125.558C35.2519 126.015 35.2939 126.915 34.9457 127.557L34.04 129.232C33.6915 129.877 33.7337 130.774 34.1302 131.231L37.6647 135.268C38.0645 135.722 38.1035 136.622 37.7585 137.261L36.8496 138.938C36.5017 139.578 36.5437 140.478 36.946 140.935L37.9872 142.127C38.387 142.581 38.426 143.481 38.0775 144.126L34.9948 149.816C34.6469 150.456 34.6888 151.356 35.0886 151.81L36.1298 153.002L36.1268 153.002Z" fill="#FF4085" stroke="black" stroke-linecap="round" stroke-linejoin="round"/>
<path d="M20.8487 129.052C21.2484 129.507 21.2874 130.406 20.9425 131.046L19.4027 133.89L17.2293 137.9L15.6895 140.744C15.341 141.389 14.7307 141.541 14.3309 141.087L13.2897 139.895C12.89 139.441 12.851 138.541 13.1995 137.896L14.7392 135.052L16.9127 131.042L18.4524 128.198C18.8003 127.558 19.411 127.403 19.8104 127.861L20.8516 129.053L20.8487 129.052Z" fill="black"/>
<path d="M28.3296 137.597C28.729 138.055 28.771 138.954 28.426 139.594L26.8863 142.438L24.7128 146.448L23.1731 149.292C22.8246 149.938 22.2142 150.09 21.8118 149.632L20.7703 148.443C20.3709 147.986 20.3289 147.086 20.6771 146.444L22.2169 143.6L24.3903 139.589L25.93 136.746C26.2779 136.106 26.8886 135.951 27.2881 136.408L28.3296 137.597Z" fill="black"/>
<path d="M9.66533 142.255C10.0651 142.71 10.1041 143.609 9.75558 144.255L8.21585 147.098L6.45006 145.08C6.05031 144.626 6.01131 143.726 6.35981 143.081L7.2655 141.407C7.61401 140.761 8.22438 140.609 8.62413 141.063L9.66533 142.255Z" fill="black"/>
<path d="M18.187 158.492L16.6473 161.336C16.2994 161.975 15.6887 162.13 15.2892 161.673L13.5235 159.654L11.0304 156.806L8.53743 153.958L6.77164 151.939C6.3719 151.485 6.33289 150.586 6.67785 149.946L8.21758 147.102L10.7106 149.95L13.2036 152.798L15.6966 155.647L18.1896 158.495L18.187 158.492Z" fill="black"/>
<path d="M22.129 156.497C22.5287 156.951 22.5677 157.85 22.2192 158.496L21.3135 160.17C20.965 160.816 20.3546 160.967 19.9549 160.513L18.1891 158.495L19.7288 155.651C20.0773 155.005 20.6877 154.853 21.0875 155.308L22.1287 156.5L22.129 156.497Z" fill="black"/>
<path d="M46.9014 156.282C47.2493 155.642 47.2073 154.743 46.8076 154.288L45.7664 153.096C45.3666 152.642 45.3276 151.743 45.6726 151.103L48.7553 145.413C49.1038 144.767 49.0615 143.871 48.665 143.414L47.6238 142.222C47.2244 141.764 47.1824 140.865 47.5274 140.225L48.4363 138.548C48.7842 137.908 48.7423 137.009 48.3425 136.555L44.808 132.517C44.4083 132.063 44.3693 131.164 44.7178 130.518L45.6264 128.844C45.9749 128.199 45.9327 127.302 45.5332 126.845L37.0127 117.111C36.8796 116.958 36.7187 116.873 36.5572 116.853L25.877 115.566C26.0415 115.586 26.1994 115.67 26.3325 115.824L34.853 125.558C35.2525 126.015 35.2944 126.914 34.9462 127.557L34.0376 129.231C33.6891 129.876 33.7313 130.773 34.1278 131.23L37.6623 135.267C38.0621 135.721 38.1011 136.621 37.7561 137.261L36.8472 138.938C36.4993 139.577 36.5412 140.477 36.9436 140.934L37.9848 142.126C38.3846 142.581 38.4236 143.48 38.0751 144.125L34.9924 149.816C34.6445 150.455 34.6864 151.355 35.0862 151.809L36.1274 153.001C36.5271 153.455 36.5661 154.355 36.2212 154.995L28.7909 168.712C28.5598 169.14 28.211 169.351 27.8878 169.312L38.568 170.6C38.8912 170.639 39.237 170.427 39.4708 170.002L46.9011 156.285L46.9014 156.282Z" fill="#FF4085" stroke="black" stroke-linecap="round" stroke-linejoin="round"/>
<path d="M27.8883 169.313C28.2115 169.352 28.5573 169.14 28.7914 168.712L36.2216 154.995L46.9018 156.282L39.4716 169.999C39.2405 170.428 38.8949 170.636 38.5688 170.597L27.8886 169.31L27.8883 169.313Z" fill="black"/>
<path d="M44.8089 132.517C44.4092 132.063 44.3702 131.163 44.7187 130.518L45.6273 128.844L34.9471 127.557L34.0384 129.231C33.6899 129.876 33.7322 130.773 34.1287 131.23L44.8089 132.517Z" fill="black"/>
<path d="M47.6212 142.224C47.2217 141.767 47.1798 140.867 47.5247 140.227L48.4337 138.55L37.7535 137.263L36.8445 138.94C36.4966 139.579 36.5386 140.479 36.941 140.936L47.6212 142.224Z" fill="black"/>
<path d="M45.7666 153.096C45.3669 152.642 45.3279 151.743 45.6728 151.103L48.7555 145.413L38.0753 144.125L34.9926 149.816C34.6447 150.455 34.6867 151.355 35.0864 151.809L45.7666 153.096Z" fill="black"/>
<path d="M-1.00175 57.835L-0.843486 52.4955C-0.899778 54.3939 -0.0766198 56.3234 1.65887 57.8774L1.5006 63.2169C-0.233209 61.6653 -1.05881 59.7375 -1.00175 57.835Z" fill="#A56CFE" stroke="black" stroke-miterlimit="10"/>
<path d="M158.315 70.3737L158.156 75.7132C158.094 77.7955 156.974 79.8393 154.838 81.3071L154.996 75.9676C157.132 74.4998 158.252 72.456 158.315 70.3737Z" fill="#A56CFE" stroke="black" stroke-miterlimit="10"/>
<path d="M73.1492 121.787L72.9909 127.126L1.50003 63.2173L1.65829 57.8778L73.1492 121.787Z" fill="#A56CFE" stroke="black" stroke-miterlimit="10"/>
<path d="M154.994 75.9659L154.836 81.3054L86.9805 127.929L87.1388 122.589L154.994 75.9659Z" fill="black" stroke="black" stroke-miterlimit="10"/>
<path d="M84.3202 1.08103C80.6822 -2.17065 74.4199 -2.52774 70.3325 0.280667L2.47691 46.9042C-1.61043 49.7126 -1.97492 54.6266 1.66136 57.8758L57.8557 108.112L140.515 51.3174L84.3202 1.08103Z" fill="#D0F500" stroke="black" stroke-miterlimit="10"/>
<path d="M84.3202 1.08103C80.6822 -2.17065 74.4199 -2.52774 70.3325 0.280667L2.47691 46.9042C-1.61043 49.7126 -1.97492 54.6266 1.66136 57.8758L57.8557 108.112L140.515 51.3174L84.3202 1.08103Z" fill="black" stroke="black" stroke-miterlimit="10"/>
<path d="M102.53 73.8456L93.4703 80.0707L92.9141 79.6271C92.4618 79.2665 92.4834 78.7024 92.9614 78.3739L100.29 73.3386C100.765 73.0118 101.527 73.0381 101.977 73.4003L102.533 73.8439L102.53 73.8456Z" fill="#302247"/>
<path d="M22.3046 33.2807L14.8841 69.6992L22.682 76.6696L33.0204 25.9178L22.3046 33.2807Z" fill="#A66CFF"/>
<path d="M25.0298 78.3843L36.0171 24.4438" stroke="#A66CFF" stroke-linecap="round" stroke-linejoin="round"/>
<path d="M78.723 5.48653C78.0879 4.91762 76.988 4.84768 76.2856 5.33027L8.0837 52.1918C7.3789 52.676 7.32366 53.5361 7.96279 54.1058L56.9344 97.8849C57.5694 98.4538 58.6694 98.5237 59.3717 98.0411L127.571 51.1813C128.276 50.697 128.331 49.8369 127.692 49.2673L78.7205 5.48821L78.723 5.48653Z" fill="#D0F500" stroke="black" stroke-miterlimit="10"/>
<path d="M73.1496 121.786C76.7875 125.038 83.0515 125.397 87.1389 122.589L154.994 75.9653C159.082 73.1569 159.446 68.243 155.808 64.9913L140.512 51.3187L57.8555 108.112L73.152 121.784L73.1496 121.786Z" fill="white" stroke="black" stroke-miterlimit="10"/>
<path d="M87.1398 122.59L86.9815 127.929C82.8942 130.737 76.6302 130.378 72.9922 127.126L73.1505 121.787C76.7884 125.038 83.0525 125.398 87.1398 122.59Z" fill="black" stroke="black" stroke-miterlimit="10"/>
<path d="M135.443 63.3425C138.36 61.3384 142.83 61.595 145.424 63.9125C148.02 66.2325 147.757 69.7375 144.84 71.7416L134.259 79.0123C131.342 81.0164 126.872 80.7597 124.278 78.4422C121.682 76.1222 121.945 72.6172 124.862 70.6132L135.443 63.3425Z" stroke="black" stroke-miterlimit="10"/>
<path d="M50.7607 86.0465L53.9914 88.9354L50.3577 91.4321L47.127 88.5432L50.7607 86.0465Z" fill="black"/>
<path d="M54.3954 83.5499L56.6953 85.6065C57.2081 86.0654 57.1628 86.7571 56.597 87.1459L53.9924 88.9355L50.7617 86.0466L54.3954 83.5499Z" fill="black"/>
<path d="M47.1273 88.5434L50.358 91.4323L46.7242 93.929L44.4244 91.8724C43.9116 91.4134 43.9569 90.7217 44.5227 90.333L47.1248 88.5451L47.1273 88.5434Z" fill="black"/>
<path d="M58.4306 75.6649L60.7304 77.7214C61.2432 78.1804 61.198 78.8721 60.6322 79.2609L58.0276 81.0505L54.7969 78.1616L58.4306 75.6649Z" fill="black"/>
<path d="M54.7933 78.1635L58.024 81.0524L54.3903 83.5491L52.0904 81.4926C51.5776 81.0336 51.6229 80.3419 52.1887 79.9531L54.7908 78.1652L54.7933 78.1635Z" fill="black"/>
<path d="M58.8299 70.2782L61.1314 72.3372C61.6442 72.7962 61.5989 73.4879 61.0331 73.8767L58.431 75.6646L56.1295 73.6056C55.6167 73.1466 55.662 72.4549 56.2278 72.0662L58.8299 70.2782Z" fill="black"/>
<path d="M58.1992 65.6023C58.765 65.2135 59.6505 65.2693 60.1617 65.7258L62.4615 67.7824L58.8278 70.2791L56.5279 68.2225C56.0151 67.7635 56.0604 67.0718 56.6262 66.6831L58.1992 65.6023Z" fill="black"/>
<path d="M69.329 68.1769L72.5597 71.0657L69.9576 72.8537C69.3918 73.2424 68.5063 73.1867 67.9951 72.7301L65.6953 70.6736L69.329 68.1769Z" fill="black"/>
<path d="M65.065 65.9938C65.6308 65.6051 66.5164 65.6608 67.0275 66.1173L69.329 68.1763L65.6953 70.6731L62.4629 67.7817L65.065 65.9938Z" fill="black"/>
<path d="M72.9658 65.6781L75.2656 67.7346C75.7784 68.1936 75.7331 68.8853 75.1673 69.2741L72.5627 71.0637L69.332 68.1748L72.9658 65.6781Z" fill="black"/>
<path d="M66.8987 54.5131L70.1311 57.4044L66.4974 59.9012L64.1959 57.8422C63.6831 57.3832 63.7284 56.6915 64.2942 56.3027L66.8963 54.5148L66.8987 54.5131Z" fill="black"/>
<path d="M70.1337 57.4029L73.3644 60.2918L69.7307 62.7885L66.5 59.8997L70.1337 57.4029Z" fill="black"/>
<path d="M73.3637 60.2918L75.6652 62.3508C76.178 62.8098 76.1327 63.5015 75.5669 63.8903L72.9648 65.6782L69.7324 62.7869L73.3662 60.2901L73.3637 60.2918Z" fill="black"/>
<path d="M61.2327 37.9609L63.5342 40.0199C64.0471 40.4789 64.0018 41.1706 63.436 41.5593L60.8314 43.3489L58.5299 41.2899C58.0171 40.8309 58.0624 40.1392 58.6282 39.7505L61.2327 37.9609Z" fill="black"/>
<path d="M60.6035 33.2808C61.1693 32.892 62.0548 32.9477 62.566 33.4043L64.8658 35.4608L61.2321 37.9576L58.9322 35.901C58.4194 35.442 58.4647 34.7503 59.0305 34.3616L60.6035 33.2808Z" fill="black"/>
<path d="M85.4677 36.6419L87.7675 38.6985C88.2804 39.1575 88.2351 39.8492 87.6693 40.238L85.0647 42.0276L81.834 39.1387L85.4677 36.6419Z" fill="black"/>
<path d="M81.8329 39.1405L85.0637 42.0294L82.4615 43.8173C81.8957 44.206 81.0102 44.1503 80.499 43.6938L78.1992 41.6372L81.8329 39.1405Z" fill="black"/>
<path d="M85.8675 31.2551L89.0999 34.1464L85.4662 36.6431L83.1647 34.5841C82.6518 34.1251 82.6971 33.4334 83.2629 33.0447L85.8651 31.2567L85.8675 31.2551Z" fill="black"/>
<path d="M89.5009 28.7589L91.8024 30.8179C92.3152 31.2769 92.2699 31.9686 91.7042 32.3573L89.0996 34.1469L85.8672 31.2556L89.5009 28.7589Z" fill="black"/>
<path d="M89.9022 23.3747L92.202 25.4312C92.7148 25.8902 92.6695 26.5819 92.1037 26.9707L89.5016 28.7586L87.2018 26.702C86.6889 26.243 86.7342 25.5513 87.3 25.1626L89.9022 23.3747Z" fill="black"/>
<path d="M89.2726 18.6955C89.8384 18.3068 90.724 18.3625 91.2351 18.819L92.604 20.0433C93.1169 20.5023 93.0716 21.194 92.5058 21.5827L89.9037 23.3707L87.6022 21.3117C87.0893 20.8527 87.1346 20.161 87.7004 19.7722L89.2734 18.6914L89.2726 18.6955Z" fill="black"/>
<path d="M67.2973 49.1268L69.5971 51.1833C70.1099 51.6423 70.0647 52.334 69.4989 52.7228L66.8967 54.5107L63.666 51.6218L67.2997 49.1251L67.2973 49.1268Z" fill="black"/>
<path d="M67.4713 33.6742C68.0371 33.2855 68.9226 33.3412 69.4338 33.7977L71.7353 35.8567L68.1015 38.3535L64.8691 35.4622L67.4737 33.6726L67.4713 33.6742Z" fill="black"/>
<path d="M71.7353 35.8568L74.966 38.7457L71.3323 41.2424L68.1016 38.3535L71.7353 35.8568Z" fill="black"/>
<path d="M74.9662 38.746L78.1986 41.6373L75.594 43.4269C75.0283 43.8156 74.1427 43.7599 73.6316 43.3034L71.3301 41.2444L74.9638 38.7477L74.9662 38.746Z" fill="black"/>
<path d="M60.8343 43.3464L64.065 46.2353L60.4313 48.732L58.1315 46.6754C57.6186 46.2164 57.6639 45.5247 58.2297 45.136L60.8319 43.348L60.8343 43.3464Z" fill="black"/>
<path d="M64.0654 46.2354L67.2977 49.1268L63.6665 51.6218L60.4316 48.7322L64.0654 46.2354Z" fill="black"/>
<path d="M19.209 64.1604L20.1852 63.4896" stroke="black" stroke-miterlimit="10"/>
<path d="M22.1523 62.1375L88.0106 16.8863" stroke="black" stroke-miterlimit="10" stroke-dasharray="6 8"/>
<path d="M88.9941 16.2109L89.9704 15.5402" stroke="black" stroke-miterlimit="10"/>
<path d="M48.7559 24.0701L49.6383 24.8577" stroke="black" stroke-miterlimit="10"/>
<path d="M51.3516 26.3877L98.4198 68.4625" stroke="black" stroke-miterlimit="10" stroke-dasharray="6 8"/>
<path d="M99.2754 69.2278L100.16 70.0178" stroke="black" stroke-miterlimit="10"/>
<path d="M134.684 73.7965C134.751 71.5326 132.467 69.6276 129.583 69.5416C126.698 69.4556 124.305 71.2213 124.237 73.4852C124.17 75.7492 126.454 77.6542 129.338 77.7401C132.223 77.8261 134.616 76.0605 134.684 73.7965Z" fill="white" stroke="black" stroke-miterlimit="10"/>
<path d="M134.692 73.807L134.652 75.1273C134.619 76.2235 134.027 77.3012 132.9 78.0754C130.745 79.5566 127.443 79.3657 125.527 77.6526C124.612 76.834 124.175 75.8167 124.206 74.8158L124.246 73.4954C124.216 74.4963 124.651 75.5154 125.567 76.3323C127.486 78.0478 130.788 78.2347 132.941 76.755C134.068 75.9809 134.659 74.9032 134.692 73.807Z" fill="black" stroke="black" stroke-miterlimit="10"/>
<path d="M145.262 66.5292C145.329 64.2652 143.046 62.3602 140.161 62.2743C137.276 62.1883 134.883 63.9539 134.816 66.2179C134.748 68.4818 137.032 70.3868 139.917 70.4728C142.801 70.5588 145.194 68.7932 145.262 66.5292Z" fill="#A66CFF" stroke="black" stroke-miterlimit="10"/>
<path d="M145.27 66.5387L145.23 67.859C145.197 68.9552 144.605 70.0329 143.479 70.8071C141.323 72.2883 138.021 72.0974 136.105 70.3843C135.191 69.5657 134.754 68.5484 134.784 67.5474L134.824 66.2271C134.794 67.228 135.229 68.247 136.145 69.064C138.064 70.7795 141.366 70.9663 143.519 69.4867C144.646 68.7126 145.237 67.6349 145.27 66.5387Z" fill="black" stroke="black" stroke-miterlimit="10"/>
<path d="M72.1076 104.171C71.8815 103.967 71.7712 103.713 71.7792 103.463L71.7291 105.099C71.7211 105.348 71.8289 105.604 72.0574 105.806L75.628 108.997L75.6782 107.361L72.1076 104.171Z" fill="black" stroke="black" stroke-linecap="round" stroke-linejoin="round"/>
<path d="M89.114 105.144L85.0998 107.902L85.0497 109.538L89.0639 106.78C89.3443 106.587 89.4899 106.318 89.4976 106.047L89.5478 104.412C89.5393 104.687 89.392 104.953 89.114 105.144Z" fill="black" stroke="black" stroke-linecap="round" stroke-linejoin="round"/>
<path d="M76.1043 114.083C75.5703 114.45 74.7423 114.405 74.2619 113.978L71.5607 111.562C71.3346 111.358 71.2243 111.103 71.2323 110.854L71.1822 112.489C71.1742 112.739 71.282 112.995 71.5106 113.197L74.2118 115.613C74.6881 116.04 75.5177 116.088 76.0542 115.719L80.066 112.962L80.1161 111.327L76.1043 114.083Z" fill="black" stroke="black" stroke-linecap="round" stroke-linejoin="round"/>
<path d="M75.2514 100.639C75.788 100.27 76.6135 100.317 77.0938 100.744L80.6645 103.934L84.6786 101.176C85.2127 100.809 86.0382 100.856 86.5186 101.283L89.2199 103.7C89.6961 104.126 89.6502 104.775 89.1161 105.142L85.102 107.9L88.6726 111.091C89.1489 111.517 89.103 112.166 88.5664 112.535L85.5278 114.623C84.9937 114.99 84.1657 114.945 83.6854 114.517L80.1147 111.327L76.103 114.084C75.5689 114.451 74.741 114.406 74.2606 113.978L71.5593 111.562C71.0831 111.135 71.1314 110.485 71.6655 110.118L75.6772 107.361L72.1066 104.171C71.6303 103.744 71.6787 103.094 72.2128 102.727L75.2514 100.639Z" fill="black" stroke="black" stroke-linecap="round" stroke-linejoin="round"/>
<path d="M88.5636 112.534L85.5249 114.622C84.9908 114.989 84.1629 114.944 83.6825 114.517L80.1119 111.327L80.0618 112.962L83.6324 116.152C84.1087 116.579 84.9383 116.627 85.4748 116.258L88.5135 114.17C88.7939 113.977 88.942 113.707 88.948 113.434L88.9981 111.798C88.9897 112.073 88.8441 112.342 88.5636 112.534Z" fill="black" stroke="black" stroke-linecap="round" stroke-linejoin="round"/>
<path d="M88.5637 112.535L85.5251 114.622C84.991 114.989 84.163 114.944 83.6827 114.517L80.112 111.327L76.1003 114.083C75.5662 114.45 74.7383 114.405 74.2579 113.978L71.5566 111.562" stroke="#EBE9E9" stroke-linecap="round" stroke-linejoin="round"/>
<path d="M89.1138 105.144L85.0996 107.902" stroke="#EBE9E9" stroke-linecap="round" stroke-linejoin="round"/>
<path d="M75.678 107.361L72.1074 104.171" stroke="#EBE9E9" stroke-linecap="round" stroke-linejoin="round"/>
<path d="M106.552 98.4745C106.764 98.3291 106.818 98.0397 106.672 97.8281C106.527 97.6164 106.237 97.5628 106.026 97.7082C105.814 97.8536 105.76 98.143 105.906 98.3546C106.051 98.5662 106.341 98.6199 106.552 98.4745Z" fill="black"/>
<path d="M111.783 94.8798C111.994 94.7344 112.048 94.4449 111.903 94.2333C111.757 94.0217 111.468 93.968 111.256 94.1134C111.045 94.2588 110.991 94.5483 111.136 94.7599C111.282 94.9715 111.571 95.0252 111.783 94.8798Z" fill="black"/>
<path d="M117.015 91.2858C117.227 91.1404 117.28 90.8509 117.135 90.6393C116.99 90.4277 116.7 90.374 116.489 90.5194C116.277 90.6648 116.223 90.9543 116.369 91.1659C116.514 91.3775 116.804 91.4312 117.015 91.2858Z" fill="black"/>
<path d="M122.244 87.6932C122.455 87.5478 122.509 87.2584 122.364 87.0468C122.218 86.8352 121.929 86.7815 121.717 86.9269C121.506 87.0723 121.452 87.3617 121.597 87.5733C121.743 87.785 122.032 87.8386 122.244 87.6932Z" fill="black"/>
<path d="M101.978 94.3827C102.19 94.2373 102.243 93.9479 102.098 93.7363C101.953 93.5246 101.663 93.471 101.452 93.6164C101.24 93.7618 101.186 94.0512 101.332 94.2628C101.477 94.4744 101.766 94.5281 101.978 94.3827Z" fill="black"/>
<path d="M107.207 90.7897C107.418 90.6443 107.472 90.3549 107.326 90.1432C107.181 89.9316 106.892 89.8779 106.68 90.0233C106.468 90.1687 106.415 90.4582 106.56 90.6698C106.706 90.8814 106.995 90.9351 107.207 90.7897Z" fill="black"/>
<path d="M112.439 87.1954C112.651 87.05 112.704 86.7606 112.559 86.549C112.414 86.3374 112.124 86.2837 111.912 86.4291C111.701 86.5745 111.647 86.8639 111.793 87.0755C111.938 87.2872 112.227 87.3408 112.439 87.1954Z" fill="black"/>
<path d="M117.669 83.6019C117.881 83.4565 117.935 83.1671 117.789 82.9555C117.644 82.7439 117.355 82.6902 117.143 82.8356C116.931 82.981 116.878 83.2704 117.023 83.482C117.168 83.6937 117.458 83.7473 117.669 83.6019Z" fill="black"/>
<path d="M97.4019 90.2936C97.6135 90.1482 97.6672 89.8588 97.5218 89.6471C97.3764 89.4355 97.087 89.3819 96.8754 89.5273C96.6637 89.6727 96.6101 89.9621 96.7555 90.1737C96.9009 90.3853 97.1903 90.439 97.4019 90.2936Z" fill="black"/>
<path d="M102.634 86.6986C102.846 86.5532 102.9 86.2638 102.754 86.0522C102.609 85.8406 102.319 85.7869 102.108 85.9323C101.896 86.0777 101.842 86.3671 101.988 86.5787C102.133 86.7903 102.423 86.844 102.634 86.6986Z" fill="black"/>
<path d="M107.861 83.1061C108.072 82.9607 108.126 82.6713 107.981 82.4597C107.835 82.248 107.546 82.1944 107.334 82.3398C107.123 82.4852 107.069 82.7746 107.214 82.9862C107.36 83.1978 107.649 83.2515 107.861 83.1061Z" fill="black"/>
<path d="M113.093 79.5121C113.305 79.3667 113.359 79.0773 113.213 78.8657C113.068 78.654 112.778 78.6004 112.567 78.7458C112.355 78.8912 112.301 79.1806 112.447 79.3922C112.592 79.6038 112.882 79.6575 113.093 79.5121Z" fill="black"/>
<path d="M125.817 98.4037C125.629 98.2348 125.331 98.2497 124.989 98.4843L119.961 101.939C119.368 102.347 118.866 103.266 118.845 103.984C118.836 104.289 118.914 104.507 119.053 104.631L124.315 109.327L131.083 103.1L125.821 98.4045L125.817 98.4037Z" fill="#EBE9E9" stroke="black" stroke-miterlimit="10"/>
<path d="M130.247 103.179C130.84 102.772 131.305 103.026 131.285 103.744C131.265 104.461 130.762 105.381 130.169 105.788L125.141 109.243C124.548 109.651 124.082 109.396 124.103 108.679C124.123 107.961 124.626 107.041 125.218 106.634L130.247 103.179Z" fill="#EBE9E9" stroke="black" stroke-miterlimit="10"/>
<path d="M200.355 194.864C196.443 197.552 191.694 199.236 186.474 199.731C177.972 200.536 168.832 198.164 160.04 192.871C150.21 186.956 144.863 180.261 143.217 171.81C141.664 163.838 143.546 154.607 145.368 145.68C147.924 133.16 148.801 126.239 138.991 117.919L127.476 108.15C126.803 107.578 126.721 106.572 127.291 105.896C127.863 105.224 128.87 105.142 129.545 105.712L141.061 115.481C146.421 120.027 149.178 124.436 150.008 129.782C150.755 134.611 149.855 139.681 148.501 146.316C146.661 155.332 144.924 163.849 146.357 171.197C147.841 178.801 152.569 184.642 161.69 190.132C169.893 195.069 178.357 197.288 186.174 196.548C193.155 195.887 199.165 192.871 203.093 188.061C206.712 183.625 208.27 178.096 207.595 172.072C206.839 165.318 203.236 158.266 197.177 151.68L175.367 127.968C170.789 122.993 168.747 116.358 169.614 109.281C170.443 102.53 173.899 96.3997 178.619 93.2787L185.094 89.0851C185.83 88.6004 186.618 88.9423 187.103 89.6791C187.583 90.4086 187.596 91.2431 186.879 91.7357C186.872 91.7408 186.862 91.7475 186.855 91.7525L180.38 95.9461C176.413 98.5641 173.506 103.821 172.788 109.668C172.038 115.798 173.789 121.527 177.72 125.802L199.53 149.514C206.053 156.603 209.94 164.282 210.775 171.715C211.537 178.514 209.689 185.036 205.572 190.08C204.077 191.912 202.327 193.513 200.364 194.862L200.355 194.864Z" fill="black"/>
<path d="M185.467 92.6452L180.369 95.947C180.068 96.1425 179.778 96.3525 179.494 96.5806" stroke="#A66CFF" stroke-miterlimit="10"/>
<path d="M178.609 93.2795L183.62 90.0339" stroke="#A66CFF" stroke-miterlimit="10"/>
<path d="M126.796 107.612C126.474 107.32 126.694 106.554 127.289 105.898C127.88 105.244 128.622 104.95 128.945 105.241L129.54 105.716L127.473 108.152L126.796 107.612Z" fill="black"/>
</g>
<path d="M26.368 221V206.845H30.985C32.4797 206.845 33.778 207.149 34.88 207.757C35.9947 208.352 36.856 209.182 37.464 210.246C38.072 211.297 38.376 212.52 38.376 213.913C38.376 215.294 38.072 216.522 37.464 217.599C36.856 218.663 35.9947 219.499 34.88 220.107C33.778 220.702 32.4797 221 30.985 221H26.368ZM28.952 218.72H31.042C32.0047 218.72 32.8343 218.524 33.531 218.131C34.2403 217.726 34.7913 217.168 35.184 216.459C35.5767 215.737 35.773 214.888 35.773 213.913C35.773 212.925 35.5767 212.076 35.184 211.367C34.7913 210.658 34.2403 210.107 33.531 209.714C32.8343 209.321 32.0047 209.125 31.042 209.125H28.952V218.72ZM40.2235 221V210.664H42.7125V221H40.2235ZM40.2235 209.505V206.845H42.7125V209.505H40.2235ZM48.9436 221.228C47.8416 221.228 46.8789 220.968 46.0556 220.449C45.2449 219.917 44.6876 219.201 44.3836 218.302L46.2456 217.409C46.5116 217.992 46.8789 218.448 47.3476 218.777C47.8289 219.106 48.3609 219.271 48.9436 219.271C49.3996 219.271 49.7606 219.17 50.0266 218.967C50.2926 218.764 50.4256 218.498 50.4256 218.169C50.4256 217.966 50.3686 217.802 50.2546 217.675C50.1532 217.536 50.0076 217.422 49.8176 217.333C49.6402 217.232 49.4439 217.149 49.2286 217.086L47.5376 216.611C46.6636 216.358 45.9986 215.971 45.5426 215.452C45.0992 214.933 44.8776 214.318 44.8776 213.609C44.8776 212.976 45.0359 212.425 45.3526 211.956C45.6819 211.475 46.1316 211.101 46.7016 210.835C47.2842 210.569 47.9492 210.436 48.6966 210.436C49.6719 210.436 50.5332 210.67 51.2806 211.139C52.0279 211.608 52.5599 212.266 52.8766 213.115L50.9766 214.008C50.7992 213.539 50.5016 213.166 50.0836 212.887C49.6656 212.608 49.1969 212.469 48.6776 212.469C48.2596 212.469 47.9302 212.564 47.6896 212.754C47.4489 212.944 47.3286 213.191 47.3286 213.495C47.3286 213.685 47.3792 213.85 47.4806 213.989C47.5819 214.128 47.7212 214.242 47.8986 214.331C48.0886 214.42 48.3039 214.502 48.5446 214.578L50.1976 215.072C51.0462 215.325 51.6986 215.705 52.1546 216.212C52.6232 216.719 52.8576 217.339 52.8576 218.074C52.8576 218.695 52.6929 219.246 52.3636 219.727C52.0342 220.196 51.5782 220.563 50.9956 220.829C50.4129 221.095 49.7289 221.228 48.9436 221.228ZM59.7483 221.228C58.7223 221.228 57.7977 220.994 56.9743 220.525C56.1637 220.044 55.524 219.398 55.0553 218.587C54.5867 217.764 54.3523 216.839 54.3523 215.813C54.3523 214.787 54.5867 213.869 55.0553 213.058C55.524 212.247 56.1637 211.608 56.9743 211.139C57.7977 210.67 58.7223 210.436 59.7483 210.436C60.483 210.436 61.167 210.569 61.8003 210.835C62.4337 211.088 62.9783 211.443 63.4343 211.899C63.903 212.342 64.2387 212.874 64.4413 213.495L62.2563 214.445C62.0663 213.926 61.7433 213.508 61.2873 213.191C60.844 212.874 60.331 212.716 59.7483 212.716C59.2037 212.716 58.716 212.849 58.2853 213.115C57.8673 213.381 57.538 213.748 57.2973 214.217C57.0567 214.686 56.9363 215.224 56.9363 215.832C56.9363 216.44 57.0567 216.978 57.2973 217.447C57.538 217.916 57.8673 218.283 58.2853 218.549C58.716 218.815 59.2037 218.948 59.7483 218.948C60.3437 218.948 60.863 218.79 61.3063 218.473C61.7497 218.156 62.0663 217.732 62.2563 217.2L64.4413 218.188C64.2387 218.771 63.9093 219.296 63.4533 219.765C62.9973 220.221 62.4527 220.582 61.8193 220.848C61.186 221.101 60.4957 221.228 59.7483 221.228ZM71.3839 221.228C70.3706 221.228 69.4459 220.994 68.6099 220.525C67.7866 220.056 67.1279 219.417 66.6339 218.606C66.1526 217.795 65.9119 216.871 65.9119 215.832C65.9119 214.793 66.1526 213.869 66.6339 213.058C67.1279 212.247 67.7866 211.608 68.6099 211.139C69.4332 210.67 70.3579 210.436 71.3839 210.436C72.3972 210.436 73.3156 210.67 74.1389 211.139C74.9622 211.608 75.6146 212.247 76.0959 213.058C76.5899 213.856 76.8369 214.781 76.8369 215.832C76.8369 216.871 76.5899 217.795 76.0959 218.606C75.6019 219.417 74.9432 220.056 74.1199 220.525C73.2966 220.994 72.3846 221.228 71.3839 221.228ZM71.3839 218.948C71.9412 218.948 72.4289 218.815 72.8469 218.549C73.2776 218.283 73.6132 217.916 73.8539 217.447C74.1072 216.966 74.2339 216.427 74.2339 215.832C74.2339 215.224 74.1072 214.692 73.8539 214.236C73.6132 213.767 73.2776 213.4 72.8469 213.134C72.4289 212.855 71.9412 212.716 71.3839 212.716C70.8139 212.716 70.3136 212.855 69.8829 213.134C69.4522 213.4 69.1102 213.767 68.8569 214.236C68.6162 214.692 68.4959 215.224 68.4959 215.832C68.4959 216.427 68.6162 216.966 68.8569 217.447C69.1102 217.916 69.4522 218.283 69.8829 218.549C70.3136 218.815 70.8139 218.948 71.3839 218.948ZM81.6549 221L77.5889 210.664H80.3059L83.2509 218.796H82.2439L85.2079 210.664H87.9249L83.8589 221H81.6549ZM94.0171 221.228C92.9531 221.228 92.0221 220.987 91.2241 220.506C90.4261 220.025 89.8054 219.372 89.3621 218.549C88.9187 217.726 88.6971 216.814 88.6971 215.813C88.6971 214.774 88.9187 213.856 89.3621 213.058C89.8181 212.247 90.4324 211.608 91.2051 211.139C91.9904 210.67 92.8644 210.436 93.8271 210.436C94.6377 210.436 95.3471 210.569 95.9551 210.835C96.5757 211.101 97.1014 211.468 97.5321 211.937C97.9627 212.406 98.2921 212.944 98.5201 213.552C98.7481 214.147 98.8621 214.793 98.8621 215.49C98.8621 215.667 98.8494 215.851 98.8241 216.041C98.8114 216.231 98.7797 216.396 98.7291 216.535H90.7491V214.635H97.3231L96.1451 215.528C96.2591 214.945 96.2274 214.426 96.0501 213.97C95.8854 213.514 95.6067 213.153 95.2141 212.887C94.8341 212.621 94.3717 212.488 93.8271 212.488C93.3077 212.488 92.8454 212.621 92.4401 212.887C92.0347 213.14 91.7244 213.52 91.5091 214.027C91.3064 214.521 91.2304 215.123 91.2811 215.832C91.2304 216.465 91.3127 217.029 91.5281 217.523C91.7561 218.004 92.0854 218.378 92.5161 218.644C92.9594 218.91 93.4661 219.043 94.0361 219.043C94.6061 219.043 95.0874 218.923 95.4801 218.682C95.8854 218.441 96.2021 218.118 96.4301 217.713L98.4441 218.701C98.2414 219.195 97.9247 219.632 97.4941 220.012C97.0634 220.392 96.5504 220.69 95.9551 220.905C95.3724 221.12 94.7264 221.228 94.0171 221.228ZM100.749 221V210.664H103.086V212.963L102.896 212.621C103.137 211.848 103.51 211.31 104.017 211.006C104.536 210.702 105.157 210.55 105.879 210.55H106.487V212.754H105.594C104.885 212.754 104.315 212.976 103.884 213.419C103.453 213.85 103.238 214.458 103.238 215.243V221H100.749ZM26.368 245V230.845H30.985C32.4797 230.845 33.778 231.149 34.88 231.757C35.9947 232.352 36.856 233.182 37.464 234.246C38.072 235.297 38.376 236.52 38.376 237.913C38.376 239.294 38.072 240.522 37.464 241.599C36.856 242.663 35.9947 243.499 34.88 244.107C33.778 244.702 32.4797 245 30.985 245H26.368ZM28.952 242.72H31.042C32.0047 242.72 32.8343 242.524 33.531 242.131C34.2403 241.726 34.7913 241.168 35.184 240.459C35.5767 239.737 35.773 238.888 35.773 237.913C35.773 236.925 35.5767 236.076 35.184 235.367C34.7913 234.658 34.2403 234.107 33.531 233.714C32.8343 233.321 32.0047 233.125 31.042 233.125H28.952V242.72ZM43.3213 245.228C42.5993 245.228 41.9723 245.108 41.4403 244.867C40.9083 244.626 40.4967 244.284 40.2053 243.841C39.914 243.385 39.7683 242.859 39.7683 242.264C39.7683 241.694 39.895 241.187 40.1483 240.744C40.4017 240.288 40.7943 239.908 41.3263 239.604C41.8583 239.3 42.5297 239.085 43.3403 238.958L46.7223 238.407V240.307L43.8153 240.801C43.3213 240.89 42.954 241.048 42.7133 241.276C42.4727 241.504 42.3523 241.802 42.3523 242.169C42.3523 242.524 42.4853 242.809 42.7513 243.024C43.03 243.227 43.372 243.328 43.7773 243.328C44.2967 243.328 44.7527 243.22 45.1453 243.005C45.5507 242.777 45.861 242.467 46.0763 242.074C46.3043 241.681 46.4183 241.251 46.4183 240.782V238.122C46.4183 237.679 46.241 237.311 45.8863 237.02C45.5443 236.716 45.0883 236.564 44.5183 236.564C43.9863 236.564 43.5113 236.71 43.0933 237.001C42.688 237.28 42.3903 237.653 42.2003 238.122L40.1673 237.134C40.37 236.589 40.6867 236.121 41.1173 235.728C41.5607 235.323 42.08 235.006 42.6753 234.778C43.2707 234.55 43.9167 234.436 44.6133 234.436C45.462 234.436 46.2093 234.594 46.8553 234.911C47.5013 235.215 48.0017 235.646 48.3563 236.203C48.7237 236.748 48.9073 237.387 48.9073 238.122V245H46.5513V243.233L47.0833 243.195C46.8173 243.638 46.5007 244.012 46.1333 244.316C45.766 244.607 45.348 244.835 44.8793 245C44.4107 245.152 43.8913 245.228 43.3213 245.228ZM51.2078 248.8V234.664H53.5448V236.716L53.3168 236.203C53.6715 235.646 54.1528 235.215 54.7608 234.911C55.3688 234.594 56.0718 234.436 56.8698 234.436C57.8452 234.436 58.7255 234.677 59.5108 235.158C60.2962 235.639 60.9168 236.285 61.3728 237.096C61.8415 237.907 62.0758 238.819 62.0758 239.832C62.0758 240.833 61.8478 241.745 61.3918 242.568C60.9358 243.391 60.3152 244.044 59.5298 244.525C58.7445 244.994 57.8515 245.228 56.8508 245.228C56.1035 245.228 55.4132 245.082 54.7798 244.791C54.1592 244.487 53.6652 244.056 53.2978 243.499L53.6968 243.005V248.8H51.2078ZM56.5658 242.948C57.1358 242.948 57.6425 242.815 58.0858 242.549C58.5292 242.283 58.8712 241.916 59.1118 241.447C59.3652 240.978 59.4918 240.44 59.4918 239.832C59.4918 239.224 59.3652 238.692 59.1118 238.236C58.8712 237.767 58.5292 237.4 58.0858 237.134C57.6425 236.855 57.1358 236.716 56.5658 236.716C56.0212 236.716 55.5272 236.849 55.0838 237.115C54.6532 237.381 54.3112 237.755 54.0578 238.236C53.8172 238.705 53.6968 239.237 53.6968 239.832C53.6968 240.44 53.8172 240.978 54.0578 241.447C54.3112 241.916 54.6532 242.283 55.0838 242.549C55.5272 242.815 56.0212 242.948 56.5658 242.948ZM63.9735 248.8V234.664H66.3105V236.716L66.0825 236.203C66.4371 235.646 66.9185 235.215 67.5265 234.911C68.1345 234.594 68.8375 234.436 69.6355 234.436C70.6108 234.436 71.4911 234.677 72.2765 235.158C73.0618 235.639 73.6825 236.285 74.1385 237.096C74.6071 237.907 74.8415 238.819 74.8415 239.832C74.8415 240.833 74.6135 241.745 74.1575 242.568C73.7015 243.391 73.0808 244.044 72.2955 244.525C71.5101 244.994 70.6171 245.228 69.6165 245.228C68.8691 245.228 68.1788 245.082 67.5455 244.791C66.9248 244.487 66.4308 244.056 66.0635 243.499L66.4625 243.005V248.8H63.9735ZM69.3315 242.948C69.9015 242.948 70.4081 242.815 70.8515 242.549C71.2948 242.283 71.6368 241.916 71.8775 241.447C72.1308 240.978 72.2575 240.44 72.2575 239.832C72.2575 239.224 72.1308 238.692 71.8775 238.236C71.6368 237.767 71.2948 237.4 70.8515 237.134C70.4081 236.855 69.9015 236.716 69.3315 236.716C68.7868 236.716 68.2928 236.849 67.8495 237.115C67.4188 237.381 67.0768 237.755 66.8235 238.236C66.5828 238.705 66.4625 239.237 66.4625 239.832C66.4625 240.44 66.5828 240.978 66.8235 241.447C67.0768 241.916 67.4188 242.283 67.8495 242.549C68.2928 242.815 68.7868 242.948 69.3315 242.948ZM80.6721 245.228C79.5701 245.228 78.6074 244.968 77.7841 244.449C76.9734 243.917 76.4161 243.201 76.1121 242.302L77.9741 241.409C78.2401 241.992 78.6074 242.448 79.0761 242.777C79.5574 243.106 80.0894 243.271 80.6721 243.271C81.1281 243.271 81.4891 243.17 81.7551 242.967C82.0211 242.764 82.1541 242.498 82.1541 242.169C82.1541 241.966 82.0971 241.802 81.9831 241.675C81.8817 241.536 81.7361 241.422 81.5461 241.333C81.3687 241.232 81.1724 241.149 80.9571 241.086L79.2661 240.611C78.3921 240.358 77.7271 239.971 77.2711 239.452C76.8277 238.933 76.6061 238.318 76.6061 237.609C76.6061 236.976 76.7644 236.425 77.0811 235.956C77.4104 235.475 77.8601 235.101 78.4301 234.835C79.0127 234.569 79.6777 234.436 80.4251 234.436C81.4004 234.436 82.2617 234.67 83.0091 235.139C83.7564 235.608 84.2884 236.266 84.6051 237.115L82.7051 238.008C82.5277 237.539 82.2301 237.166 81.8121 236.887C81.3941 236.608 80.9254 236.469 80.4061 236.469C79.9881 236.469 79.6587 236.564 79.4181 236.754C79.1774 236.944 79.0571 237.191 79.0571 237.495C79.0571 237.685 79.1077 237.85 79.2091 237.989C79.3104 238.128 79.4497 238.242 79.6271 238.331C79.8171 238.42 80.0324 238.502 80.2731 238.578L81.9261 239.072C82.7747 239.325 83.4271 239.705 83.8831 240.212C84.3517 240.719 84.5861 241.339 84.5861 242.074C84.5861 242.695 84.4214 243.246 84.0921 243.727C83.7627 244.196 83.3067 244.563 82.7241 244.829C82.1414 245.095 81.4574 245.228 80.6721 245.228Z" fill="black"/>
<path d="M154 237H140" stroke="black" stroke-width="1.5" stroke-linecap="round" stroke-linejoin="round"/>
<path d="M149 242L154 237" stroke="black" stroke-width="1.5" stroke-linecap="round" stroke-linejoin="round"/>
<path d="M149 232L154 237" stroke="black" stroke-width="1.5" stroke-linecap="round" stroke-linejoin="round"/>
<defs>
<filter id="filter0_i_115_8914" x="0" y="0" width="183" height="275" filterUnits="userSpaceOnUse" color-interpolation-filters="sRGB">
<feFlood flood-opacity="0" result="BackgroundImageFix"/>
<feBlend mode="normal" in="SourceGraphic" in2="BackgroundImageFix" result="shape"/>
<feColorMatrix in="SourceAlpha" type="matrix" values="0 0 0 0 0 0 0 0 0 0 0 0 0 0 0 0 0 0 127 0" result="hardAlpha"/>
<feOffset dy="2"/>
<feComposite in2="hardAlpha" operator="arithmetic" k2="-1" k3="1"/>
<feColorMatrix type="matrix" values="0 0 0 0 1 0 0 0 0 1 0 0 0 0 1 0 0 0 1 0"/>
<feBlend mode="normal" in2="shape" result="effect1_innerShadow_115_8914"/>
</filter>
</defs>
</svg>
