<svg width="183" height="275" viewBox="0 0 183 275" fill="none" xmlns="http://www.w3.org/2000/svg">
<g filter="url(#filter0_i_115_8738)">
<rect width="183" height="275" rx="20" fill="#FFEDED"/>
</g>
<rect x="0.5" y="0.5" width="182" height="274" rx="19.5" stroke="black"/>
<mask id="mask0_115_8738" style="mask-type:alpha" maskUnits="userSpaceOnUse" x="2" y="2" width="179" height="271">
<path d="M2 20C2 10.0589 10.0589 2 20 2H163C172.941 2 181 10.0589 181 20V255C181 264.941 172.941 273 163 273H20C10.0589 273 2 264.941 2 255V20Z" fill="#FFF2D0"/>
</mask>
<g mask="url(#mask0_115_8738)">
<path d="M162.424 7.28108L165.279 2.8788C170.572 -5.27777 180.944 2.48163 179.293 15.8557C178.486 22.4027 174.276 29.0041 179.084 35.3086C185.928 44.293 171.697 50.0832 171.697 50.0832" stroke="black" stroke-width="7" stroke-linecap="round" stroke-linejoin="round"/>
<path d="M165.196 8.05841C165.647 7.36441 164.987 6.1311 163.72 5.31168C162.453 4.48808 161.061 4.38772 160.609 5.0859L156.057 12.1012L160.643 15.0778L165.196 8.06257V8.05841Z" fill="#EBE9E9" stroke="black" stroke-linecap="round" stroke-linejoin="round"/>
<path d="M160.656 15.0928C161.107 14.3976 160.446 13.1674 159.18 12.3452C157.913 11.523 156.521 11.4201 156.069 12.1154C155.618 12.8106 156.279 14.0408 157.545 14.863C158.812 15.6852 160.205 15.7881 160.656 15.0928Z" fill="#A66CFF" stroke="black" stroke-linecap="round" stroke-linejoin="round"/>
<path d="M141.147 89.6925L62.8047 67.656V127.779L141.147 146.316V89.6925Z" fill="black"/>
<path d="M80.2055 73.0733C75.2346 71.7187 68.6625 79.938 65.527 91.435C62.3915 102.932 63.8798 113.35 68.8507 114.705L129.793 131.327L141.148 89.6958L80.2055 73.0733Z" fill="#FF4085" stroke="black" stroke-linecap="round" stroke-linejoin="round"/>
<path d="M144.519 113.004C147.656 101.508 146.17 91.0893 141.2 89.7335C136.23 88.3777 129.659 96.5982 126.523 108.095C123.386 119.591 124.872 130.009 129.842 131.365C134.812 132.721 141.383 124.501 144.519 113.004Z" fill="#A66CFF" stroke="black" stroke-linecap="round" stroke-linejoin="round"/>
<path d="M139.724 111.696C141.19 106.326 140.496 101.459 138.175 100.825C135.854 100.192 132.784 104.033 131.319 109.403C129.854 114.774 130.548 119.641 132.869 120.274C135.19 120.907 138.259 117.067 139.724 111.696Z" stroke="black" stroke-linecap="round" stroke-linejoin="round"/>
<path d="M42.3775 154.317L115.034 170.986L135.474 137.971V85.1389L126.895 62.6174L173.961 33.3022L182.565 55.8572C183.192 57.5002 182.996 59.3439 182.038 60.8197L161.386 92.6349C160.55 93.9268 158.685 95.4318 157.247 95.9795L150.349 98.6092V140.324C150.349 145.492 148.045 153.268 145.231 157.603L126.907 185.827C124.094 190.163 117.71 192.596 112.722 191.237L58.9917 176.584C54.0041 175.225 48.4187 170.158 46.575 165.329L42.7747 155.371L42.3691 154.309L42.3775 154.317Z" fill="white" stroke="black" stroke-linecap="round" stroke-linejoin="round"/>
<path d="M118.372 188.498L112.652 173.502" stroke="black" stroke-linecap="round" stroke-linejoin="round"/>
<path d="M60.7407 55.5312V112.422C60.7407 116.536 58.9095 122.724 56.6686 126.173L43.0061 147.218C40.1925 151.554 41.9692 156.215 46.9568 157.574L105.963 173.666C110.951 175.024 117.331 172.591 120.149 168.256L134.61 145.977C136.407 143.205 137.879 138.238 137.879 134.936V76.5728L60.7407 55.5354V55.5312ZM133.799 132.013C133.799 133.991 132.235 135.186 130.329 134.664L68.0569 117.682C66.1464 117.159 64.5869 115.115 64.5869 113.137V77.8479C64.5869 75.8704 66.1505 74.6747 68.0569 75.1973L130.329 92.1794C132.239 92.702 133.799 94.7463 133.799 96.7238V132.013Z" fill="#EBE9E9" stroke="black" stroke-linecap="round" stroke-linejoin="round"/>
<path d="M107.157 138.258C106.71 138.948 106.994 139.688 107.785 139.906L123.864 144.291C124.658 144.509 125.67 144.12 126.117 143.43L128.337 140.006C128.784 139.316 128.5 138.576 127.71 138.359L111.631 133.973C110.836 133.756 109.825 134.145 109.377 134.834L107.157 138.258Z" fill="#EBE9E9" stroke="black" stroke-linecap="round" stroke-linejoin="round"/>
<path d="M102.222 145.864C101.775 146.554 102.059 147.294 102.849 147.511L118.928 151.897C119.722 152.114 120.734 151.725 121.181 151.035L123.401 147.611C123.849 146.922 123.564 146.182 122.774 145.964L106.695 141.579C105.901 141.361 104.889 141.75 104.442 142.44L102.222 145.864Z" fill="#EBE9E9" stroke="black" stroke-linecap="round" stroke-linejoin="round"/>
<path d="M97.2844 153.469C96.837 154.159 97.1213 154.899 97.9115 155.116L113.991 159.502C114.785 159.719 115.797 159.33 116.244 158.64L118.464 155.216C118.911 154.527 118.627 153.787 117.837 153.569L101.758 149.184C100.963 148.966 99.9517 149.355 99.5043 150.045L97.2844 153.469Z" fill="#EBE9E9" stroke="black" stroke-linecap="round" stroke-linejoin="round"/>
<path d="M92.3508 161.073C91.9034 161.763 92.1877 162.503 92.9779 162.72L109.057 167.106C109.851 167.323 110.863 166.934 111.31 166.245L113.53 162.821C113.978 162.131 113.693 161.391 112.903 161.173L96.8241 156.788C96.0298 156.571 95.018 156.959 94.5707 157.649L92.3508 161.073Z" fill="#EBE9E9" stroke="black" stroke-linecap="round" stroke-linejoin="round"/>
<path d="M77.2741 45.2421L68.9336 45.9904L69.3893 47.115L143.317 67.2786L152.573 66.4466C153.735 66.3421 154.789 65.7108 155.424 64.7283L173.598 36.7301C174.258 35.71 174.392 34.4391 173.961 33.3061L172.649 29.8654C172.218 28.7324 171.269 27.8712 170.099 27.5535L107.166 10.3916L97.5088 14.0748L77.2741 45.2462V45.2421Z" fill="#EBE9E9" stroke="black" stroke-linecap="round" stroke-linejoin="round"/>
<path d="M79.2906 45.606L71.4141 46.3125L71.8447 47.3744L141.654 66.4134L150.597 65.6107C151.567 65.5229 152.445 64.9961 152.976 64.1767L171.459 35.706C171.722 35.3005 171.78 34.7946 171.617 34.3389L170.234 30.4425C170.062 29.9617 169.669 29.598 169.176 29.4642L107.54 12.6536L98.4215 16.1319L79.2906 45.606Z" fill="#A66CFF" stroke="black" stroke-linecap="round" stroke-linejoin="round"/>
<path d="M153.12 59.6035L131.176 53.6167L142.15 36.7141L164.095 42.7009L153.12 59.6035Z" fill="black" stroke="black" stroke-linecap="round" stroke-linejoin="round"/>
<path d="M141.265 34.3894L130.291 51.2962L131.177 53.6165L153.122 59.6033L164.096 42.7007L163.21 40.3762L141.265 34.3894Z" fill="black" stroke="black" stroke-linecap="round" stroke-linejoin="round"/>
<path d="M116.205 48.1187L113.02 53.0226L113.404 54.0176L116.059 54.7451L119.24 49.8411L118.86 48.8419L116.205 48.1187Z" fill="black" stroke="black" stroke-linecap="round" stroke-linejoin="round"/>
<path d="M160.872 34.1636L159.316 36.5591L159.697 37.5583L162.352 38.2816L163.907 35.886L163.526 34.8868L160.872 34.1636Z" fill="black" stroke="black" stroke-linecap="round" stroke-linejoin="round"/>
<path d="M163.21 40.3762L152.24 57.2788L130.291 51.2962" stroke="#A66CFF" stroke-linecap="round" stroke-linejoin="round"/>
<path d="M153.12 59.6033L152.238 57.2788" stroke="#A66CFF" stroke-linecap="round" stroke-linejoin="round"/>
<path d="M158.455 42.1187C158.635 42.1187 158.781 41.9728 158.781 41.7927C158.781 41.6126 158.635 41.4666 158.455 41.4666C158.275 41.4666 158.129 41.6126 158.129 41.7927C158.129 41.9728 158.275 42.1187 158.455 42.1187Z" fill="#A66CFF"/>
<path d="M155.478 41.3087C155.659 41.3087 155.805 41.1627 155.805 40.9826C155.805 40.8025 155.659 40.6565 155.478 40.6565C155.298 40.6565 155.152 40.8025 155.152 40.9826C155.152 41.1627 155.298 41.3087 155.478 41.3087Z" fill="#A66CFF"/>
<path d="M152.506 40.4974C152.686 40.4974 152.832 40.3514 152.832 40.1713C152.832 39.9912 152.686 39.8452 152.506 39.8452C152.326 39.8452 152.18 39.9912 152.18 40.1713C152.18 40.3514 152.326 40.4974 152.506 40.4974Z" fill="#A66CFF"/>
<path d="M149.533 39.6861C149.713 39.6861 149.859 39.5401 149.859 39.36C149.859 39.1799 149.713 39.0339 149.533 39.0339C149.353 39.0339 149.207 39.1799 149.207 39.36C149.207 39.5401 149.353 39.6861 149.533 39.6861Z" fill="#A66CFF"/>
<path d="M146.557 38.8753C146.737 38.8753 146.883 38.7294 146.883 38.5493C146.883 38.3692 146.737 38.2231 146.557 38.2231C146.376 38.2231 146.23 38.3692 146.23 38.5493C146.23 38.7294 146.376 38.8753 146.557 38.8753Z" fill="#A66CFF"/>
<path d="M143.584 38.0643C143.764 38.0643 143.91 37.9183 143.91 37.7382C143.91 37.5581 143.764 37.4121 143.584 37.4121C143.404 37.4121 143.258 37.5581 143.258 37.7382C143.258 37.9183 143.404 38.0643 143.584 38.0643Z" fill="#A66CFF"/>
<path d="M156.926 44.4781C157.106 44.4781 157.252 44.3321 157.252 44.152C157.252 43.9719 157.106 43.8259 156.926 43.8259C156.746 43.8259 156.6 43.9719 156.6 44.152C156.6 44.3321 156.746 44.4781 156.926 44.4781Z" fill="#A66CFF"/>
<path d="M153.947 43.6659C154.127 43.6659 154.273 43.5199 154.273 43.3398C154.273 43.1597 154.127 43.0137 153.947 43.0137C153.767 43.0137 153.621 43.1597 153.621 43.3398C153.621 43.5199 153.767 43.6659 153.947 43.6659Z" fill="#A66CFF"/>
<path d="M150.976 42.8551C151.157 42.8551 151.303 42.7091 151.303 42.529C151.303 42.3489 151.157 42.2029 150.976 42.2029C150.796 42.2029 150.65 42.3489 150.65 42.529C150.65 42.7091 150.796 42.8551 150.976 42.8551Z" fill="#A66CFF"/>
<path d="M148 42.0438C148.18 42.0438 148.326 41.8978 148.326 41.7177C148.326 41.5376 148.18 41.3916 148 41.3916C147.82 41.3916 147.674 41.5376 147.674 41.7177C147.674 41.8978 147.82 42.0438 148 42.0438Z" fill="#A66CFF"/>
<path d="M145.027 41.2337C145.207 41.2337 145.353 41.0877 145.353 40.9077C145.353 40.7276 145.207 40.5815 145.027 40.5815C144.847 40.5815 144.701 40.7276 144.701 40.9077C144.701 41.0877 144.847 41.2337 145.027 41.2337Z" fill="#A66CFF"/>
<path d="M142.055 40.422C142.235 40.422 142.381 40.276 142.381 40.0959C142.381 39.9158 142.235 39.7698 142.055 39.7698C141.875 39.7698 141.729 39.9158 141.729 40.0959C141.729 40.276 141.875 40.422 142.055 40.422Z" fill="#A66CFF"/>
<path d="M155.394 46.8358C155.575 46.8358 155.721 46.6898 155.721 46.5097C155.721 46.3296 155.575 46.1836 155.394 46.1836C155.214 46.1836 155.068 46.3296 155.068 46.5097C155.068 46.6898 155.214 46.8358 155.394 46.8358Z" fill="#A66CFF"/>
<path d="M152.418 46.0245C152.598 46.0245 152.744 45.8785 152.744 45.6984C152.744 45.5183 152.598 45.3723 152.418 45.3723C152.238 45.3723 152.092 45.5183 152.092 45.6984C152.092 45.8785 152.238 46.0245 152.418 46.0245Z" fill="#A66CFF"/>
<path d="M149.445 45.2132C149.625 45.2132 149.771 45.0672 149.771 44.8871C149.771 44.707 149.625 44.561 149.445 44.561C149.265 44.561 149.119 44.707 149.119 44.8871C149.119 45.0672 149.265 45.2132 149.445 45.2132Z" fill="#A66CFF"/>
<path d="M146.469 44.4019C146.649 44.4019 146.795 44.2559 146.795 44.0758C146.795 43.8957 146.649 43.7498 146.469 43.7498C146.289 43.7498 146.143 43.8957 146.143 44.0758C146.143 44.2559 146.289 44.4019 146.469 44.4019Z" fill="#A66CFF"/>
<path d="M143.496 43.5912C143.676 43.5912 143.822 43.4451 143.822 43.265C143.822 43.0849 143.676 42.939 143.496 42.939C143.316 42.939 143.17 43.0849 143.17 43.265C143.17 43.4451 143.316 43.5912 143.496 43.5912Z" fill="#A66CFF"/>
<path d="M140.523 42.7799C140.703 42.7799 140.849 42.6339 140.849 42.4538C140.849 42.2737 140.703 42.1277 140.523 42.1277C140.343 42.1277 140.197 42.2737 140.197 42.4538C140.197 42.6339 140.343 42.7799 140.523 42.7799Z" fill="#A66CFF"/>
<path d="M153.865 49.1925C154.045 49.1925 154.191 49.0465 154.191 48.8664C154.191 48.6863 154.045 48.5403 153.865 48.5403C153.685 48.5403 153.539 48.6863 153.539 48.8664C153.539 49.0465 153.685 49.1925 153.865 49.1925Z" fill="#A66CFF"/>
<path d="M150.889 48.3822C151.069 48.3822 151.215 48.2362 151.215 48.0561C151.215 47.876 151.069 47.73 150.889 47.73C150.708 47.73 150.562 47.876 150.562 48.0561C150.562 48.2362 150.708 48.3822 150.889 48.3822Z" fill="#A66CFF"/>
<path d="M147.916 47.5709C148.096 47.5709 148.242 47.4249 148.242 47.2448C148.242 47.0647 148.096 46.9187 147.916 46.9187C147.736 46.9187 147.59 47.0647 147.59 47.2448C147.59 47.4249 147.736 47.5709 147.916 47.5709Z" fill="#A66CFF"/>
<path d="M144.939 46.7599C145.119 46.7599 145.265 46.6139 145.265 46.4338C145.265 46.2537 145.119 46.1077 144.939 46.1077C144.759 46.1077 144.613 46.2537 144.613 46.4338C144.613 46.6139 144.759 46.7599 144.939 46.7599Z" fill="#A66CFF"/>
<path d="M141.967 45.9481C142.147 45.9481 142.293 45.8021 142.293 45.622C142.293 45.4419 142.147 45.2959 141.967 45.2959C141.787 45.2959 141.641 45.4419 141.641 45.622C141.641 45.8021 141.787 45.9481 141.967 45.9481Z" fill="#A66CFF"/>
<path d="M138.994 45.138C139.174 45.138 139.32 44.992 139.32 44.8119C139.32 44.6318 139.174 44.4858 138.994 44.4858C138.814 44.4858 138.668 44.6318 138.668 44.8119C138.668 44.992 138.814 45.138 138.994 45.138Z" fill="#A66CFF"/>
<path d="M152.336 51.5506C152.516 51.5506 152.662 51.4046 152.662 51.2245C152.662 51.0444 152.516 50.8984 152.336 50.8984C152.156 50.8984 152.01 51.0444 152.01 51.2245C152.01 51.4046 152.156 51.5506 152.336 51.5506Z" fill="#A66CFF"/>
<path d="M149.359 50.7396C149.539 50.7396 149.685 50.5936 149.685 50.4135C149.685 50.2334 149.539 50.0874 149.359 50.0874C149.179 50.0874 149.033 50.2334 149.033 50.4135C149.033 50.5936 149.179 50.7396 149.359 50.7396Z" fill="#A66CFF"/>
<path d="M146.387 49.9251C146.567 49.9251 146.713 49.7792 146.713 49.5991C146.713 49.419 146.567 49.2729 146.387 49.2729C146.207 49.2729 146.061 49.419 146.061 49.5991C146.061 49.7792 146.207 49.9251 146.387 49.9251Z" fill="#A66CFF"/>
<path d="M143.41 49.1134C143.59 49.1134 143.736 48.9674 143.736 48.7873C143.736 48.6072 143.59 48.4612 143.41 48.4612C143.23 48.4612 143.084 48.6072 143.084 48.7873C143.084 48.9674 143.23 49.1134 143.41 49.1134Z" fill="#A66CFF"/>
<path d="M140.437 48.3021C140.617 48.3021 140.763 48.1561 140.763 47.976C140.763 47.7959 140.617 47.6499 140.437 47.6499C140.257 47.6499 140.111 47.7959 140.111 47.976C140.111 48.1561 140.257 48.3021 140.437 48.3021Z" fill="#A66CFF"/>
<path d="M137.461 47.4918C137.641 47.4918 137.787 47.3458 137.787 47.1657C137.787 46.9856 137.641 46.8396 137.461 46.8396C137.281 46.8396 137.135 46.9856 137.135 47.1657C137.135 47.3458 137.281 47.4918 137.461 47.4918Z" fill="#A66CFF"/>
<path d="M150.805 53.9049C150.985 53.9049 151.131 53.7589 151.131 53.5788C151.131 53.3987 150.985 53.2527 150.805 53.2527C150.625 53.2527 150.479 53.3987 150.479 53.5788C150.479 53.7589 150.625 53.9049 150.805 53.9049Z" fill="#A66CFF"/>
<path d="M147.828 53.0941C148.008 53.0941 148.154 52.9481 148.154 52.768C148.154 52.5879 148.008 52.4419 147.828 52.4419C147.648 52.4419 147.502 52.5879 147.502 52.768C147.502 52.9481 147.648 53.0941 147.828 53.0941Z" fill="#A66CFF"/>
<path d="M144.855 52.2828C145.036 52.2828 145.182 52.1368 145.182 51.9567C145.182 51.7766 145.036 51.6306 144.855 51.6306C144.675 51.6306 144.529 51.7766 144.529 51.9567C144.529 52.1368 144.675 52.2828 144.855 52.2828Z" fill="#A66CFF"/>
<path d="M141.879 51.4715C142.059 51.4715 142.205 51.3255 142.205 51.1454C142.205 50.9653 142.059 50.8193 141.879 50.8193C141.699 50.8193 141.553 50.9653 141.553 51.1454C141.553 51.3255 141.699 51.4715 141.879 51.4715Z" fill="#A66CFF"/>
<path d="M138.906 50.6602C139.086 50.6602 139.232 50.5143 139.232 50.3342C139.232 50.1541 139.086 50.0081 138.906 50.0081C138.726 50.0081 138.58 50.1541 138.58 50.3342C138.58 50.5143 138.726 50.6602 138.906 50.6602Z" fill="#A66CFF"/>
<path d="M135.93 49.8495C136.11 49.8495 136.256 49.7035 136.256 49.5234C136.256 49.3433 136.11 49.1973 135.93 49.1973C135.75 49.1973 135.604 49.3433 135.604 49.5234C135.604 49.7035 135.75 49.8495 135.93 49.8495Z" fill="#A66CFF"/>
<path d="M144.686 64.2187L148.498 58.3406" stroke="black" stroke-linecap="round" stroke-linejoin="round"/>
<path d="M141.795 63.4286L145.608 57.5547" stroke="black" stroke-linecap="round" stroke-linejoin="round"/>
<path d="M138.91 62.6427L142.723 56.7688" stroke="black" stroke-linecap="round" stroke-linejoin="round"/>
<path d="M136.021 61.8531L139.834 55.9792" stroke="black" stroke-linecap="round" stroke-linejoin="round"/>
<path d="M133.133 61.0663L136.946 55.1924" stroke="black" stroke-linecap="round" stroke-linejoin="round"/>
<path d="M109.449 18.0341L171.085 34.8448C171.302 34.9033 171.499 35.0162 171.666 35.1542C171.72 34.8824 171.708 34.6023 171.612 34.3389L170.228 30.4425C170.056 29.9617 169.663 29.598 169.17 29.4642L107.534 12.6536L98.4157 16.1319L79.2847 45.606L71.4082 46.3125L71.8388 47.3744L81.7806 50.0877L100.326 21.5125L109.444 18.0341H109.449Z" fill="black"/>
<path d="M66.3296 45.8197C67.45 44.0931 69.9877 43.1273 71.9736 43.6666L144.325 63.3996C146.311 63.9389 147.017 65.7951 145.897 67.5176L140.834 75.3188C139.714 77.0455 137.176 78.0112 135.19 77.4719L62.8387 57.7389C60.8528 57.1996 60.1463 55.3434 61.2667 53.6209L66.3296 45.8197Z" fill="#EBE9E9" stroke="black" stroke-linecap="round" stroke-linejoin="round"/>
<path d="M71.0507 51.5381C71.5231 50.8065 72.6017 50.3968 73.442 50.6267L135.898 67.6589C136.738 67.8889 137.039 68.6748 136.562 69.4023C136.086 70.1297 135.011 70.5436 134.171 70.3137L71.7155 53.2815C70.8751 53.0515 70.5741 52.2656 71.0507 51.5381Z" fill="black" stroke="black" stroke-linecap="round" stroke-linejoin="round"/>
<path d="M159.02 92.773L154.823 81.7652C154.438 80.7577 153.276 80.1765 152.239 80.4734C151.202 80.7702 150.354 81.899 150.354 82.9776V105.612" stroke="black" stroke-linecap="round" stroke-linejoin="round"/>
<path d="M91.2057 169.644L116.411 130.872L114.639 127.193C111.691 105.545 119.568 95.1772 125.918 90.9798V74.9467L131.194 69.0185L108.083 62.5007L46.957 157.579L91.2057 169.648V169.644Z" fill="black"/>
<path d="M165.581 14.7983L163.319 8.87L105.119 -7L97.0004 -3.90627L74.0273 31.4918L76.2849 37.4201L78.1788 42.3742L136.374 58.2484L144.493 55.1505L167.47 19.7566L165.581 14.7983Z" fill="#A66CFF" stroke="black" stroke-linecap="round" stroke-linejoin="round"/>
<path d="M144.494 55.1503L142.604 50.192L134.485 53.2899L76.2852 37.4199L78.179 42.3741L136.375 58.2482L144.494 55.1503Z" fill="black"/>
<path d="M76.2849 37.4201L74.0273 31.4918L97.0004 -3.90627L105.119 -7L163.319 8.87L165.581 14.7982L142.604 50.1922L134.485 53.2901L76.2849 37.4201Z" fill="#A66CFF" stroke="black" stroke-linecap="round" stroke-linejoin="round"/>
<path d="M161.446 18.5229L158.286 19.1501L156.613 18.6944L158.996 24.9404L162.082 20.1869L161.446 18.5229Z" fill="white" stroke="black" stroke-linecap="round" stroke-linejoin="round"/>
<path d="M154.811 18.2049C154.109 18.0126 153.214 18.3554 152.817 18.9658L151.864 20.4332L150.4 20.7259L151.036 22.3898C151.136 22.6532 151.374 22.8664 151.726 22.9583L158.996 24.94L156.613 18.694L154.807 18.2007L154.811 18.2049Z" fill="#A66CFF" stroke="black" stroke-linecap="round" stroke-linejoin="round"/>
<path d="M158.361 23.2766L151.091 21.2949C150.388 21.1026 150.141 20.4504 150.534 19.84L152.182 17.3023C152.579 16.692 153.474 16.3533 154.176 16.5414L161.446 18.5231L158.361 23.2766Z" fill="white" stroke="black" stroke-linecap="round" stroke-linejoin="round"/>
<path d="M156.919 25.501L153.759 26.1323L152.082 25.6766L154.465 31.9184L157.55 27.1649L156.919 25.501Z" fill="#A66CFF" stroke="black" stroke-linecap="round" stroke-linejoin="round"/>
<path d="M150.28 25.1819C149.577 24.9896 148.683 25.3324 148.286 25.9428L147.332 27.4102L145.869 27.7029L146.505 29.3668C146.605 29.6302 146.843 29.8434 147.194 29.9354L154.465 31.9171L152.082 25.6711L150.276 25.1777L150.28 25.1819Z" fill="black" stroke="black" stroke-linecap="round" stroke-linejoin="round"/>
<path d="M153.829 30.2544L146.559 28.2727C145.857 28.0804 145.61 27.4282 146.003 26.8178L147.65 24.2801C148.048 23.6697 148.942 23.3311 149.645 23.5192L156.915 25.5009L153.829 30.2544Z" fill="#A66CFF" stroke="black" stroke-linecap="round" stroke-linejoin="round"/>
<path d="M152.386 32.4829L149.225 33.11L147.553 32.6543L149.936 38.9003L153.021 34.1468L152.386 32.4829Z" fill="#A66CFF" stroke="black" stroke-linecap="round" stroke-linejoin="round"/>
<path d="M145.747 32.1612C145.044 31.9689 144.15 32.3117 143.752 32.9221L142.799 34.3895L141.336 34.6822L141.971 36.3461C142.072 36.6095 142.31 36.8227 142.661 36.9146L149.932 38.8963L147.548 32.6503L145.742 32.157L145.747 32.1612Z" fill="black" stroke="black" stroke-linecap="round" stroke-linejoin="round"/>
<path d="M149.3 37.236L142.03 35.2544C141.328 35.0621 141.081 34.4099 141.474 33.7995L143.121 31.2618C143.518 30.6514 144.413 30.3128 145.115 30.5009L152.386 32.4826L149.3 37.236Z" fill="#A66CFF" stroke="black" stroke-linecap="round" stroke-linejoin="round"/>
<path d="M147.854 39.4604L144.694 40.0917L143.021 39.6318L145.404 45.8778L148.49 41.1244L147.854 39.4604Z" fill="#A66CFF" stroke="black" stroke-linecap="round" stroke-linejoin="round"/>
<path d="M141.219 39.1424C140.517 38.9501 139.622 39.2929 139.225 39.9033L138.272 41.3707L136.809 41.6634L137.444 43.3273C137.544 43.5907 137.783 43.8039 138.134 43.8958L145.404 45.8775L143.021 39.6315L141.215 39.1382L141.219 39.1424Z" fill="black" stroke="black" stroke-linecap="round" stroke-linejoin="round"/>
<path d="M144.769 44.2138L137.499 42.2322C136.796 42.0399 136.55 41.3877 136.943 40.7773L138.59 38.2396C138.987 37.6292 139.882 37.2906 140.584 37.4787L147.854 39.4604L144.769 44.2138Z" fill="#A66CFF" stroke="black" stroke-linecap="round" stroke-linejoin="round"/>
<path d="M105.119 -7L97.0004 -3.90627L74.0273 31.4918L76.2849 37.4201L83.689 39.4352L139.146 2.27701L105.119 -7Z" fill="black" stroke="black" stroke-linecap="round" stroke-linejoin="round"/>
<path d="M142.604 50.192L134.485 53.2899L76.2852 37.4199" stroke="#A66CFF" stroke-linecap="round" stroke-linejoin="round"/>
<path d="M134.484 53.2903L135.835 56.8272" stroke="#A66CFF" stroke-linecap="round" stroke-linejoin="round"/>
<path d="M81.034 34.5357C79.2864 34.0591 78.6594 32.4244 79.6502 30.9026L100.366 -1.01294C101.352 -2.53472 103.593 -3.38759 105.341 -2.91099L149.451 9.11692C151.199 9.59352 151.826 11.2282 150.835 12.75L130.12 44.6656C129.133 46.1873 126.892 47.0402 125.145 46.5636L81.034 34.5357Z" fill="#D0F500" stroke="black" stroke-linecap="round" stroke-linejoin="round"/>
<path d="M110.285 22.1179L136.657 29.3129" stroke="black" stroke-linecap="round" stroke-linejoin="round"/>
<path d="M106.613 27.7749L132.985 34.9657" stroke="black" stroke-linecap="round" stroke-linejoin="round"/>
<path d="M102.943 33.4268L129.315 40.6218" stroke="black" stroke-linecap="round" stroke-linejoin="round"/>
<path d="M99.1268 7.51959L97.8852 7.18096C97.5841 7.09734 97.4838 6.80888 97.6636 6.53295L99.1352 4.26701C99.315 3.99108 99.7037 3.83639 100.005 3.91582L101.246 4.25446L99.131 7.51541L99.1268 7.51959Z" fill="black"/>
<path d="M106.928 5.22432C106.748 5.50025 106.359 5.65495 106.058 5.57551L101.246 4.26276L101.982 3.12978C102.162 2.85385 102.551 2.69918 102.852 2.77861L107.12 3.94084C107.421 4.02445 107.521 4.31292 107.342 4.58885L106.932 5.22014L106.928 5.22432Z" fill="black"/>
<path d="M103.756 10.115C103.576 10.3909 103.187 10.5456 102.886 10.4662L98.6176 9.30394C98.3166 9.22032 98.2162 8.93186 98.396 8.65593L99.1318 7.52295L103.944 8.8357C104.245 8.91931 104.345 9.20778 104.165 9.48371L103.756 10.115Z" fill="black"/>
<path d="M100.908 11.2566C100.728 11.5325 100.339 11.6872 100.038 11.6078L99.3441 11.4197C99.0431 11.336 98.9428 11.0476 99.1226 10.7717L99.8584 9.63867L101.644 10.1278L100.908 11.2608V11.2566Z" fill="black"/>
<path d="M105.879 3.60126L104.094 3.11213L104.83 1.97915C105.009 1.70322 105.398 1.54855 105.699 1.62798L106.393 1.81612C106.694 1.89973 106.795 2.1882 106.615 2.46412L105.879 3.59708V3.60126Z" fill="black"/>
<path d="M140.099 20.613L133.498 18.8111C133.197 18.7275 132.804 18.8864 132.628 19.1623L132.218 19.7936C132.038 20.0695 132.139 20.358 132.44 20.4416L138.494 22.093C138.795 22.1766 139.187 22.0177 139.363 21.7418L140.099 20.6088V20.613Z" fill="black"/>
<path d="M144.734 16.7083C144.914 16.4324 144.814 16.1439 144.513 16.0603L143.271 15.7217L140.094 20.6131L141.335 20.9518C141.636 21.0354 142.029 20.8765 142.205 20.6006L144.734 16.7042V16.7083Z" fill="black"/>
<path d="M144.007 14.5889C144.187 14.313 144.087 14.0245 143.786 13.9409L138.974 12.6282L138.238 13.7611C138.058 14.0371 138.158 14.3255 138.459 14.4092L143.271 15.7219L144.007 14.5889Z" fill="black"/>
<path d="M140.032 10.9979L138.247 10.5088L137.511 11.6418C137.331 11.9177 137.432 12.2062 137.733 12.2898L138.974 12.6284L140.032 10.9979Z" fill="black"/>
<path d="M147.912 11.8167C148.092 11.5408 147.991 11.2523 147.69 11.1687L139.852 9.03232C139.551 8.94871 139.157 9.10759 138.982 9.38351L138.246 10.5165L146.633 12.8033C146.934 12.8869 147.327 12.7281 147.502 12.4521L147.912 11.8209V11.8167Z" fill="black"/>
<path d="M120.377 5.63763L115.018 4.17438L115.753 3.04142C115.933 2.7655 116.322 2.6108 116.623 2.69023L120.891 3.85248C121.192 3.9361 121.293 4.22456 121.113 4.50049L120.377 5.63345V5.63763Z" fill="black"/>
<path d="M117.195 13.7822C117.015 14.0581 116.627 14.2128 116.326 14.1334L115.084 13.7947L120.377 5.64233L121.618 5.98097C121.919 6.06459 122.02 6.35305 121.84 6.62898L117.195 13.7864V13.7822Z" fill="black"/>
<path d="M109.724 12.3305L108.483 11.9918C108.182 11.9082 108.081 11.6198 108.261 11.3438L112.906 4.18644C113.086 3.91052 113.475 3.75582 113.776 3.83525L115.017 4.17389L109.724 12.3263V12.3305Z" fill="black"/>
<path d="M114.353 14.9233C114.174 15.1993 113.785 15.3539 113.484 15.2745L109.215 14.1123C108.914 14.0287 108.814 13.7402 108.994 13.4643L109.729 12.3313L115.089 13.7945L114.353 14.9275V14.9233Z" fill="black"/>
<path d="M133.792 13.1382L132.55 12.7996L129.373 17.691L130.615 18.0296C130.916 18.1133 131.309 17.9544 131.484 17.6784L134.014 13.782C134.193 13.5061 134.093 13.2176 133.792 13.134V13.1382Z" fill="black"/>
<path d="M122.776 15.8886L124.017 16.2272L127.195 11.3358L125.953 10.9972C125.652 10.9136 125.259 11.0724 125.084 11.3484L122.554 15.2448C122.374 15.5207 122.475 15.8092 122.776 15.8928V15.8886Z" fill="black"/>
<path d="M132.555 12.799L127.195 11.3358L128.253 9.70532L133.613 11.1686L132.555 12.799Z" fill="black"/>
<path d="M128.254 9.7055L127.012 9.36686C126.711 9.28325 126.611 8.99476 126.791 8.71883L127.2 8.08757C127.38 7.81164 127.769 7.65694 128.07 7.73638L129.311 8.07501L128.254 9.7055Z" fill="black"/>
<path d="M134.671 9.53882L135.913 9.87746C136.214 9.96107 136.314 10.2495 136.134 10.5255L135.725 11.1568C135.545 11.4327 135.156 11.5874 134.855 11.5079L133.613 11.1693L134.671 9.53882Z" fill="black"/>
<path d="M128.642 18.824C128.463 19.0999 128.074 19.2546 127.773 19.1751L123.504 18.0129C123.203 17.9293 123.103 17.6408 123.283 17.3649L124.019 16.2319L129.378 17.6952L128.642 18.8281V18.824Z" fill="black"/>
<path d="M130.048 6.94252C130.228 6.6666 130.617 6.51193 130.918 6.59136L135.186 7.75358C135.487 7.8372 135.588 8.12569 135.408 8.40162L134.672 9.53457L129.312 8.07132L130.048 6.93837V6.94252Z" fill="black"/>
<path d="M119.712 16.3864C119.533 16.6624 119.144 16.817 118.843 16.7376L118.149 16.5495C117.848 16.4659 117.747 16.1774 117.927 15.9015L118.337 15.2702C118.517 14.9943 118.906 14.8396 119.207 14.919L119.901 15.1071C120.202 15.1907 120.302 15.4792 120.122 15.7551L119.712 16.3864Z" fill="black"/>
<path d="M99.6457 19.2551L91.7734 20.4759L95.9332 24.9785L103.805 23.7578L99.6457 19.2551Z" fill="white" stroke="black" stroke-linecap="round" stroke-linejoin="round"/>
<path d="M95.9331 24.9785L91.7733 20.4758L88.0566 26.1992L92.2164 30.7019L95.9331 24.9785Z" fill="white" stroke="black" stroke-linecap="round" stroke-linejoin="round"/>
<path d="M100.093 29.4807L103.806 23.7573L95.9335 24.9781L92.2168 30.7015L100.093 29.4807Z" fill="white" stroke="black" stroke-linecap="round" stroke-linejoin="round"/>
<path d="M119.71 16.3862C119.531 16.6621 119.142 16.8168 118.841 16.7373L118.147 16.5492C117.846 16.4656 117.746 16.1771 117.925 15.9012L118.335 15.2699C118.515 14.994 118.904 14.8393 119.205 14.9187L119.899 15.1069C120.2 15.1905 120.3 15.479 120.12 15.7549L119.71 16.3862Z" fill="black"/>
<path d="M116.297 21.8424C116.118 22.1183 115.729 22.273 115.428 22.1936L111.565 21.1401C111.264 21.0564 111.163 20.768 111.343 20.4921L111.753 19.8608C111.933 19.5848 112.322 19.4301 112.623 19.5096L116.486 20.5631C116.787 20.6467 116.887 20.9352 116.707 21.2111L116.297 21.8424Z" fill="black"/>
<path d="M116.783 28.4686C116.603 28.7446 116.214 28.8992 115.913 28.8198L107.987 26.6584C107.686 26.5748 107.585 26.2863 107.765 26.0104L108.175 25.3791C108.355 25.1031 108.743 24.9484 109.044 25.0279L116.971 27.1893C117.272 27.2729 117.372 27.5614 117.193 27.8373L116.783 28.4686Z" fill="black"/>
<path d="M107.698 32.5912C107.518 32.8671 107.129 33.0218 106.828 32.9423L104.215 32.2275C103.914 32.1438 103.814 31.8554 103.994 31.5794L104.403 30.9482C104.583 30.6722 104.972 30.5175 105.273 30.597L107.886 31.3119C108.187 31.3955 108.287 31.684 108.107 31.9599L107.698 32.5912Z" fill="black"/>
<path d="M134.349 68.6374C117.383 64.0094 107.065 87.6847 107.065 107.568V131.482C107.065 148.351 99.9664 157.256 91.8182 156.784C91.1368 156.746 90.493 156.641 89.8951 156.478L28.9277 139.852C29.5339 140.019 30.1861 140.123 30.876 140.165C39.0242 140.638 46.123 131.729 46.123 114.864V90.9499C46.123 71.0706 56.4452 47.3952 73.4064 52.0191L134.349 68.6416V68.6374Z" fill="white" stroke="black" stroke-linecap="round" stroke-linejoin="round"/>
<path d="M64.998 56.6648L74.0242 59.1231" stroke="black" stroke-linecap="round" stroke-linejoin="round"/>
<path d="M79.9453 66.0293L92.6463 69.4951" stroke="black" stroke-linecap="round" stroke-linejoin="round"/>
<path d="M60.4824 60.7241L77.707 65.4191" stroke="black" stroke-linecap="round" stroke-linejoin="round"/>
<path d="M58.7148 83.3999L90.8771 92.1711" stroke="black" stroke-linecap="round" stroke-linejoin="round"/>
<path d="M28.9417 139.852C21.2116 137.745 20.5092 125.838 30.8899 115.696C38.6284 108.137 37.37 94.8467 30.8858 84.5621L16.663 62.0072C14.6228 58.7713 12.2565 56.869 9.74805 56.175L70.6611 72.7892C73.182 73.4748 75.5567 75.3813 77.6052 78.6297L91.828 101.185C98.3123 111.469 99.5707 124.755 91.8322 132.318C81.439 142.469 82.5175 154.468 89.909 156.483L28.9417 139.856V139.852Z" fill="#A66CFF" stroke="black" stroke-linecap="round" stroke-linejoin="round"/>
<path d="M-37 159.907L-11.4809 78.9392C-6.38043 62.7515 2.30705 54.1267 9.74872 56.1794L70.6618 72.7936C63.2284 70.7743 54.5576 79.3949 49.4613 95.5617L23.9423 176.53L-37 159.907Z" fill="white" stroke="black" stroke-linecap="round" stroke-linejoin="round"/>
<path d="M23.3398 67.2036L37.1571 70.9704" stroke="black" stroke-linecap="round" stroke-linejoin="round"/>
<path d="M5.38281 62.3081L21.3239 66.6519" stroke="black" stroke-linecap="round" stroke-linejoin="round"/>
<path d="M5.2832 84.9587L26.0237 90.6152" stroke="black" stroke-linecap="round" stroke-linejoin="round"/>
<path d="M-5.74609 81.9487L3.29679 84.4153" stroke="black" stroke-linecap="round" stroke-linejoin="round"/>
<path d="M11.5879 93.3835L24.6694 96.9539" stroke="black" stroke-linecap="round" stroke-linejoin="round"/>
<path d="M-7.69336 88.1238L9.46431 92.8062" stroke="black" stroke-linecap="round" stroke-linejoin="round"/>
<path d="M0.869141 66.3633L10.6186 69.0222" stroke="black" stroke-linecap="round" stroke-linejoin="round"/>
</g>
<path d="M33.018 221.228C32.0047 221.228 31.0673 221.044 30.206 220.677C29.3573 220.31 28.61 219.797 27.964 219.138C27.3307 218.479 26.8367 217.707 26.482 216.82C26.1273 215.933 25.95 214.964 25.95 213.913C25.95 212.862 26.121 211.893 26.463 211.006C26.8177 210.107 27.3117 209.334 27.945 208.688C28.591 208.029 29.3447 207.523 30.206 207.168C31.0673 206.801 32.0047 206.617 33.018 206.617C34.0313 206.617 34.937 206.788 35.735 207.13C36.5457 207.472 37.2297 207.928 37.787 208.498C38.3443 209.055 38.7433 209.67 38.984 210.341L36.666 211.424C36.4 210.715 35.9503 210.132 35.317 209.676C34.6837 209.207 33.9173 208.973 33.018 208.973C32.1313 208.973 31.346 209.182 30.662 209.6C29.9907 210.018 29.465 210.594 29.085 211.329C28.7177 212.064 28.534 212.925 28.534 213.913C28.534 214.901 28.7177 215.769 29.085 216.516C29.465 217.251 29.9907 217.827 30.662 218.245C31.346 218.663 32.1313 218.872 33.018 218.872C33.9173 218.872 34.6837 218.644 35.317 218.188C35.9503 217.719 36.4 217.13 36.666 216.421L38.984 217.504C38.7433 218.175 38.3443 218.796 37.787 219.366C37.2297 219.923 36.5457 220.373 35.735 220.715C34.937 221.057 34.0313 221.228 33.018 221.228ZM40.8729 221V210.664H43.2099V212.963L43.0199 212.621C43.2605 211.848 43.6342 211.31 44.1409 211.006C44.6602 210.702 45.2809 210.55 46.0029 210.55H46.6109V212.754H45.7179C45.0085 212.754 44.4385 212.976 44.0079 213.419C43.5772 213.85 43.3619 214.458 43.3619 215.243V221H40.8729ZM49.2333 225.199C48.9546 225.199 48.6823 225.174 48.4163 225.123C48.1503 225.085 47.9096 225.015 47.6943 224.914V222.824C47.859 222.862 48.0553 222.9 48.2833 222.938C48.524 222.976 48.7456 222.995 48.9483 222.995C49.5183 222.995 49.93 222.862 50.1833 222.596C50.4493 222.33 50.6836 221.982 50.8863 221.551L51.5703 219.955L51.5323 222.045L47.0293 210.664H49.7083L52.8623 219.062H51.9123L55.0473 210.664H57.7453L53.2423 222.045C52.9763 222.716 52.6533 223.286 52.2733 223.755C51.8933 224.224 51.45 224.578 50.9433 224.819C50.4493 225.072 49.8793 225.199 49.2333 225.199ZM59.1121 224.8V210.664H61.4491V212.716L61.2211 212.203C61.5758 211.646 62.0571 211.215 62.6651 210.911C63.2731 210.594 63.9761 210.436 64.7741 210.436C65.7495 210.436 66.6298 210.677 67.4151 211.158C68.2005 211.639 68.8211 212.285 69.2771 213.096C69.7458 213.907 69.9801 214.819 69.9801 215.832C69.9801 216.833 69.7521 217.745 69.2961 218.568C68.8401 219.391 68.2195 220.044 67.4341 220.525C66.6488 220.994 65.7558 221.228 64.7551 221.228C64.0078 221.228 63.3175 221.082 62.6841 220.791C62.0635 220.487 61.5695 220.056 61.2021 219.499L61.6011 219.005V224.8H59.1121ZM64.4701 218.948C65.0401 218.948 65.5468 218.815 65.9901 218.549C66.4335 218.283 66.7755 217.916 67.0161 217.447C67.2695 216.978 67.3961 216.44 67.3961 215.832C67.3961 215.224 67.2695 214.692 67.0161 214.236C66.7755 213.767 66.4335 213.4 65.9901 213.134C65.5468 212.855 65.0401 212.716 64.4701 212.716C63.9255 212.716 63.4315 212.849 62.9881 213.115C62.5575 213.381 62.2155 213.755 61.9621 214.236C61.7215 214.705 61.6011 215.237 61.6011 215.832C61.6011 216.44 61.7215 216.978 61.9621 217.447C62.2155 217.916 62.5575 218.283 62.9881 218.549C63.4315 218.815 63.9255 218.948 64.4701 218.948ZM76.4042 221.114C75.2389 221.114 74.3332 220.797 73.6872 220.164C73.0539 219.518 72.7372 218.612 72.7372 217.447V212.887H70.9512V210.664H71.1412C71.6479 210.664 72.0405 210.531 72.3192 210.265C72.5979 209.999 72.7372 209.613 72.7372 209.106V208.308H75.2262V210.664H77.6012V212.887H75.2262V217.314C75.2262 217.656 75.2832 217.947 75.3972 218.188C75.5239 218.429 75.7139 218.612 75.9672 218.739C76.2332 218.866 76.5689 218.929 76.9742 218.929C77.0629 218.929 77.1642 218.923 77.2782 218.91C77.4049 218.897 77.5252 218.885 77.6392 218.872V221C77.4619 221.025 77.2592 221.051 77.0312 221.076C76.8032 221.101 76.5942 221.114 76.4042 221.114ZM84.5021 221.228C83.4887 221.228 82.5641 220.994 81.7281 220.525C80.9047 220.056 80.2461 219.417 79.7521 218.606C79.2707 217.795 79.0301 216.871 79.0301 215.832C79.0301 214.793 79.2707 213.869 79.7521 213.058C80.2461 212.247 80.9047 211.608 81.7281 211.139C82.5514 210.67 83.4761 210.436 84.5021 210.436C85.5154 210.436 86.4337 210.67 87.2571 211.139C88.0804 211.608 88.7327 212.247 89.2141 213.058C89.7081 213.856 89.9551 214.781 89.9551 215.832C89.9551 216.871 89.7081 217.795 89.2141 218.606C88.7201 219.417 88.0614 220.056 87.2381 220.525C86.4147 220.994 85.5027 221.228 84.5021 221.228ZM84.5021 218.948C85.0594 218.948 85.5471 218.815 85.9651 218.549C86.3957 218.283 86.7314 217.916 86.9721 217.447C87.2254 216.966 87.3521 216.427 87.3521 215.832C87.3521 215.224 87.2254 214.692 86.9721 214.236C86.7314 213.767 86.3957 213.4 85.9651 213.134C85.5471 212.855 85.0594 212.716 84.5021 212.716C83.9321 212.716 83.4317 212.855 83.0011 213.134C82.5704 213.4 82.2284 213.767 81.9751 214.236C81.7344 214.692 81.6141 215.224 81.6141 215.832C81.6141 216.427 81.7344 216.966 81.9751 217.447C82.2284 217.916 82.5704 218.283 83.0011 218.549C83.4317 218.815 83.9321 218.948 84.5021 218.948ZM26.368 245V230.845H28.382L36.172 241.333L35.127 241.542V230.845H37.711V245H35.678L28.002 234.436L28.952 234.227V245H26.368ZM45.144 245.228C44.08 245.228 43.149 244.987 42.351 244.506C41.553 244.025 40.9323 243.372 40.489 242.549C40.0457 241.726 39.824 240.814 39.824 239.813C39.824 238.774 40.0457 237.856 40.489 237.058C40.945 236.247 41.5593 235.608 42.332 235.139C43.1173 234.67 43.9913 234.436 44.954 234.436C45.7647 234.436 46.474 234.569 47.082 234.835C47.7027 235.101 48.2283 235.468 48.659 235.937C49.0897 236.406 49.419 236.944 49.647 237.552C49.875 238.147 49.989 238.793 49.989 239.49C49.989 239.667 49.9763 239.851 49.951 240.041C49.9383 240.231 49.9067 240.396 49.856 240.535H41.876V238.635H48.45L47.272 239.528C47.386 238.945 47.3543 238.426 47.177 237.97C47.0123 237.514 46.7337 237.153 46.341 236.887C45.961 236.621 45.4987 236.488 44.954 236.488C44.4347 236.488 43.9723 236.621 43.567 236.887C43.1617 237.14 42.8513 237.52 42.636 238.027C42.4333 238.521 42.3573 239.123 42.408 239.832C42.3573 240.465 42.4397 241.029 42.655 241.523C42.883 242.004 43.2123 242.378 43.643 242.644C44.0863 242.91 44.593 243.043 45.163 243.043C45.733 243.043 46.2143 242.923 46.607 242.682C47.0123 242.441 47.329 242.118 47.557 241.713L49.571 242.701C49.3683 243.195 49.0517 243.632 48.621 244.012C48.1903 244.392 47.6773 244.69 47.082 244.905C46.4993 245.12 45.8533 245.228 45.144 245.228ZM54.4788 245L50.9258 234.664H53.5478L56.1508 242.511L55.2388 242.492L58.0128 234.664H60.2168L62.9718 242.492L62.0598 242.511L64.6628 234.664H67.2848L63.7318 245H61.5088L58.6968 236.811H59.5328L56.6828 245H54.4788ZM72.5822 245.228C71.4802 245.228 70.5176 244.968 69.6942 244.449C68.8836 243.917 68.3262 243.201 68.0222 242.302L69.8842 241.409C70.1502 241.992 70.5176 242.448 70.9862 242.777C71.4676 243.106 71.9996 243.271 72.5822 243.271C73.0382 243.271 73.3992 243.17 73.6652 242.967C73.9312 242.764 74.0642 242.498 74.0642 242.169C74.0642 241.966 74.0072 241.802 73.8932 241.675C73.7919 241.536 73.6462 241.422 73.4562 241.333C73.2789 241.232 73.0826 241.149 72.8672 241.086L71.1762 240.611C70.3022 240.358 69.6372 239.971 69.1812 239.452C68.7379 238.933 68.5162 238.318 68.5162 237.609C68.5162 236.976 68.6746 236.425 68.9912 235.956C69.3206 235.475 69.7702 235.101 70.3402 234.835C70.9229 234.569 71.5879 234.436 72.3352 234.436C73.3106 234.436 74.1719 234.67 74.9192 235.139C75.6666 235.608 76.1986 236.266 76.5152 237.115L74.6152 238.008C74.4379 237.539 74.1402 237.166 73.7222 236.887C73.3042 236.608 72.8356 236.469 72.3162 236.469C71.8982 236.469 71.5689 236.564 71.3282 236.754C71.0876 236.944 70.9672 237.191 70.9672 237.495C70.9672 237.685 71.0179 237.85 71.1192 237.989C71.2206 238.128 71.3599 238.242 71.5372 238.331C71.7272 238.42 71.9426 238.502 72.1832 238.578L73.8362 239.072C74.6849 239.325 75.3372 239.705 75.7932 240.212C76.2619 240.719 76.4962 241.339 76.4962 242.074C76.4962 242.695 76.3316 243.246 76.0022 243.727C75.6729 244.196 75.2169 244.563 74.6342 244.829C74.0516 245.095 73.3676 245.228 72.5822 245.228Z" fill="black"/>
<path d="M154 237H140" stroke="black" stroke-width="1.5" stroke-linecap="round" stroke-linejoin="round"/>
<path d="M149 242L154 237" stroke="black" stroke-width="1.5" stroke-linecap="round" stroke-linejoin="round"/>
<path d="M149 232L154 237" stroke="black" stroke-width="1.5" stroke-linecap="round" stroke-linejoin="round"/>
<defs>
<filter id="filter0_i_115_8738" x="0" y="0" width="183" height="275" filterUnits="userSpaceOnUse" color-interpolation-filters="sRGB">
<feFlood flood-opacity="0" result="BackgroundImageFix"/>
<feBlend mode="normal" in="SourceGraphic" in2="BackgroundImageFix" result="shape"/>
<feColorMatrix in="SourceAlpha" type="matrix" values="0 0 0 0 0 0 0 0 0 0 0 0 0 0 0 0 0 0 127 0" result="hardAlpha"/>
<feOffset dy="2"/>
<feComposite in2="hardAlpha" operator="arithmetic" k2="-1" k3="1"/>
<feColorMatrix type="matrix" values="0 0 0 0 1 0 0 0 0 1 0 0 0 0 1 0 0 0 1 0"/>
<feBlend mode="normal" in2="shape" result="effect1_innerShadow_115_8738"/>
</filter>
</defs>
</svg>
