<svg width="297" height="221" viewBox="0 0 297 221" fill="none" xmlns="http://www.w3.org/2000/svg">
<path d="M242.558 204.925C258.722 204.925 271.827 191.821 271.827 175.657C271.827 159.492 258.722 146.388 242.558 146.388C226.393 146.388 213.289 159.492 213.289 175.657C213.289 191.821 226.393 204.925 242.558 204.925Z" fill="#EBE9E9" stroke="black" stroke-linecap="round" stroke-linejoin="round"/>
<path d="M240.223 167.222C257.518 164.94 271.06 172.757 266.203 162.155C265.309 160.206 263.709 157.773 261.732 155.919C250.553 145.441 232.995 146.008 222.517 157.187C219.129 160.802 216.902 165.083 215.809 169.576C215.21 173.692 215.115 178.363 215.859 181.855C215.859 181.855 223.078 169.487 240.223 167.225V167.222Z" fill="#A66CFF"/>
<path d="M261.372 155.583C250.285 145.19 232.874 145.754 222.484 156.841C214.388 165.479 212.943 177.951 217.94 187.954H217.943C215.868 183.762 221.524 166.3 243.055 161.781C255.587 159.151 259.367 159.021 261.372 155.583Z" fill="black"/>
<path d="M242.181 192.92C243.005 192.105 243.841 191.234 244.678 190.299C246.563 191.548 248.388 192.634 250.115 193.544C252.349 194.814 250.033 196.218 249.481 196.38C248.603 196.636 247.878 196.282 247.529 196.11C245.831 195.214 244.037 194.146 242.181 192.916M247.092 187.466C247.875 186.497 248.635 185.505 249.37 184.5C251.129 185.663 252.83 186.684 254.446 187.549C256.569 188.781 254.649 190.625 253.759 190.828C253.097 190.98 252.555 190.714 252.263 190.572C250.616 189.691 248.882 188.651 247.089 187.466M257.213 184.526C256.791 184.307 256.36 184.079 255.926 183.841C255.888 183.905 255.853 183.971 255.815 184.035C255.036 183.604 254.241 183.141 253.426 182.641C253.464 182.577 253.505 182.514 253.543 182.45C252.916 182.064 252.276 181.658 251.633 181.23C251.592 181.294 251.55 181.354 251.509 181.417C250.673 180.863 249.82 180.273 248.958 179.652C249.003 179.592 249.044 179.532 249.088 179.469C248.341 178.93 247.586 178.366 246.829 177.78C246.027 178.825 245.21 179.874 244.373 180.914C243.119 182.479 241.832 184.032 240.527 185.546C239.383 186.874 238.274 188.113 237.209 189.263C236.404 190.131 235.625 190.945 234.877 191.706C235.644 192.298 236.404 192.866 237.158 193.411C237.212 193.36 237.269 193.306 237.323 193.255C238.191 193.883 239.05 194.475 239.896 195.036C239.839 195.087 239.782 195.138 239.722 195.185C240.375 195.616 241.018 196.028 241.652 196.418C241.712 196.37 241.772 196.32 241.829 196.272C242.65 196.776 243.454 197.245 244.24 197.679C244.177 197.726 244.117 197.774 244.053 197.821C244.598 198.122 245.137 198.408 245.663 198.671C251.867 201.541 256.421 196.697 255.441 194.418C255.321 194.136 255.134 193.899 254.998 193.728C259.225 193.322 262.168 188.334 258.734 185.502C258.477 185.289 258.005 184.95 257.213 184.526Z" fill="black"/>
<path d="M246.832 177.78C246.537 177.552 246.242 177.32 245.947 177.086C245.247 176.528 244.556 175.964 243.882 175.394C243.032 176.401 242.174 177.415 241.309 178.433C242.012 179.025 242.728 179.611 243.457 180.191C243.764 180.435 244.072 180.676 244.376 180.91C245.209 179.871 246.03 178.822 246.832 177.777" fill="black"/>
<path d="M237.216 189.263C236.908 189.025 236.601 188.784 236.294 188.54C235.562 187.957 234.839 187.368 234.136 186.772C233.356 187.663 232.615 188.505 231.908 189.304C232.589 189.877 233.287 190.448 233.993 191.012C234.291 191.25 234.589 191.481 234.884 191.712C235.635 190.952 236.414 190.137 237.216 189.269" fill="black"/>
<path d="M253.651 177.983C252.862 177.46 252.06 176.905 251.249 176.322C250.555 177.371 249.835 178.423 249.091 179.469C249.046 179.529 249.005 179.589 248.961 179.653C249.823 180.274 250.672 180.863 251.512 181.417C251.553 181.354 251.594 181.294 251.635 181.23C252.339 180.156 253.01 179.073 253.651 177.986" fill="black"/>
<path d="M257.704 180.448C256.972 180.042 256.221 179.605 255.454 179.136C254.856 180.248 254.219 181.354 253.547 182.45C253.509 182.514 253.468 182.577 253.43 182.641C254.244 183.141 255.039 183.604 255.819 184.035C255.857 183.971 255.892 183.905 255.93 183.841C256.567 182.726 257.159 181.592 257.704 180.451" fill="black"/>
<path d="M239.9 195.036C239.054 194.475 238.196 193.883 237.327 193.255C237.274 193.306 237.217 193.36 237.163 193.411C236.409 194.117 235.677 194.767 234.967 195.359C235.787 195.952 236.602 196.513 237.4 197.042C238.161 196.484 238.937 195.863 239.729 195.182C239.786 195.131 239.843 195.084 239.904 195.033" fill="black"/>
<path d="M244.246 197.679C243.461 197.245 242.656 196.776 241.835 196.272C241.775 196.32 241.715 196.37 241.658 196.418C240.84 197.08 240.029 197.679 239.23 198.214C240.007 198.693 240.767 199.136 241.509 199.545C242.355 199.038 243.207 198.465 244.059 197.821C244.123 197.774 244.183 197.726 244.246 197.679Z" fill="black"/>
<path d="M258.928 103.649C260.784 103.063 262.518 102.791 264.013 102.791C266.098 102.791 267.724 103.317 268.592 104.248C269.71 105.452 270.037 107.864 269.46 110.7C266.919 123.257 251.855 132.348 243.991 130.491L238.068 156.141C240.692 156.75 243.446 157.063 246.281 157.063C247.936 157.063 249.615 156.959 251.316 156.743C261.304 155.479 271.311 150.602 279.489 143.007C287.667 135.412 293.272 125.795 295.269 115.928C297.556 104.632 294.866 93.8457 287.886 86.3296C280.905 78.8136 270.347 75.3313 258.915 76.7794C256.266 77.1153 253.614 77.7046 250.993 78.5317L258.924 103.649H258.928Z" fill="#A66CFF" stroke="black" stroke-miterlimit="10"/>
<path d="M270.121 104.356C271.068 105.975 271.22 108.231 270.675 110.95C269.154 118.428 263.596 124.572 257.57 128.247C256.511 128.894 254.068 130.066 254.068 130.066C256.888 129.727 258.485 131.261 260.25 132.129C262.554 133.263 264.896 133.606 268.096 130.665C276.265 123.159 278.416 112.287 273.042 106.536C272.196 105.63 271.211 104.904 270.121 104.353V104.356Z" fill="black"/>
<path d="M241.394 146.999C250.71 151.385 264.551 148.042 275.292 138.004C288.252 125.893 291.795 108.621 283.201 99.4255C277.181 92.9836 266.804 92.2168 256.674 96.4976L257.586 98.8995C266.221 95.7245 274.953 96.71 280.182 102.306C287.983 110.652 285.036 126.08 273.6 136.768C262.78 146.879 248.242 149.113 240.102 142.256L241.391 147.003L241.394 146.999Z" fill="#EBE9E9"/>
<path d="M258.906 103.66C261.635 102.799 262.072 96.4778 259.882 89.5423C257.693 82.6067 253.706 77.6826 250.978 78.5439C248.249 79.4053 247.812 85.7259 250.001 92.6615C252.191 99.597 256.178 104.521 258.906 103.66Z" fill="black" stroke="black" stroke-miterlimit="10"/>
<path d="M245.015 144.284C246.65 137.201 246.191 131.047 243.99 130.538C241.788 130.03 238.678 135.36 237.043 142.443C235.408 149.527 235.867 155.681 238.068 156.189C240.269 156.697 243.379 151.367 245.015 144.284Z" fill="black" stroke="black" stroke-miterlimit="10"/>
<path d="M243.99 130.497C242.973 130.257 242.168 129.841 241.645 129.277C239.921 127.421 240.026 122.674 242.732 117.481L219.442 105.183C217.342 109.182 215.821 113.368 214.965 117.598C212.677 128.894 215.367 139.68 222.348 147.196C226.508 151.677 231.939 154.722 238.071 156.148C240.273 156.655 243.385 151.325 245.02 144.243C246.655 137.161 246.195 131.008 243.993 130.497H243.99Z" fill="black"/>
<path d="M219.912 121.654C216.649 134.718 223.056 146.905 233.75 153.334C223.721 149.341 215.416 140.285 215.416 125.393C215.416 121.308 216.138 117.55 217.045 114.442C218.553 109.261 222.016 113.228 219.912 121.65V121.654Z" fill="#A66CFF"/>
<path d="M243.99 130.497C242.973 130.257 242.168 129.841 241.645 129.277C239.921 127.421 240.026 122.674 242.732 117.481L219.442 105.183C217.342 109.182 215.821 113.368 214.965 117.598C212.677 128.894 215.367 139.68 222.348 147.196C226.508 151.677 231.939 154.722 238.071 156.148C240.273 156.655 243.385 151.325 245.02 144.243C246.655 137.161 246.195 131.008 243.993 130.497H243.99Z" stroke="black" stroke-miterlimit="10"/>
<path d="M242.717 117.533C243.772 115.535 239.414 111.162 232.983 107.766C226.552 104.369 220.483 103.235 219.428 105.233C218.373 107.231 222.731 111.604 229.162 115C235.593 118.397 241.662 119.53 242.717 117.533Z" fill="#D0F500" stroke="black" stroke-miterlimit="10"/>
<path d="M191.961 21.4263C191.812 21.1411 191.52 20.9288 191.131 20.8591L189.119 20.5073C188.349 20.3742 187.465 20.8464 187.154 21.5593L174.673 50.1309C174.362 50.8439 173.475 51.316 172.705 51.1798L165.886 49.9884C165.493 49.9187 165.205 49.7063 165.053 49.4212L169.099 57.1559C169.248 57.441 169.54 57.6534 169.932 57.7231L176.751 58.9144C177.521 59.0475 178.409 58.5786 178.719 57.8656L191.2 29.294C191.511 28.581 192.395 28.1058 193.165 28.242L195.177 28.5937C195.567 28.6634 195.858 28.8757 196.007 29.1609L191.961 21.4263Z" fill="#A66CFF"/>
<path d="M198.977 10.5166L194.931 2.78198C195.076 3.05765 195.089 3.40306 194.937 3.75478L193.559 6.9139L197.605 14.6485L198.983 11.4894C199.135 11.1377 199.123 10.7923 198.977 10.5166Z" fill="#EBE9E9" stroke="#A66CFF" stroke-miterlimit="10"/>
<path d="M177.525 18.9072C177.376 18.6221 177.088 18.4097 176.698 18.3432L174.686 17.9915C173.916 17.8584 173.029 18.3305 172.718 19.0435L171.904 20.9034C171.593 21.6132 170.709 22.0885 169.939 21.9523L167.927 21.6006C167.157 21.4675 166.27 21.9396 165.959 22.6525L165.148 24.5094C164.838 25.2223 163.954 25.6976 163.184 25.5614L161.172 25.2096C160.402 25.0765 159.514 25.5487 159.204 26.2585L158.39 28.1184C158.079 28.8314 157.195 29.3067 156.425 29.1704L154.413 28.8187C154.023 28.7521 153.735 28.5399 153.586 28.2547L157.632 35.9893C157.781 36.2745 158.07 36.4868 158.459 36.5534L160.471 36.9051C161.241 37.0381 162.125 36.5661 162.436 35.8531L163.25 33.9931C163.561 33.2833 164.448 32.808 165.218 32.9443L167.23 33.296C168 33.4291 168.884 32.9569 169.195 32.2408L170.006 30.384C170.316 29.6711 171.204 29.1958 171.974 29.332L173.986 29.6837C174.756 29.8168 175.64 29.3447 175.95 28.6349L176.765 26.7749C177.075 26.062 177.962 25.5867 178.732 25.7229L180.744 26.0747C181.134 26.1412 181.422 26.3535 181.571 26.6387L177.525 18.9041V18.9072Z" fill="#A66CFF"/>
<path d="M201.849 16.7811C202.001 16.4294 201.988 16.0841 201.842 15.8084L197.796 8.07373C197.942 8.3494 197.954 8.69481 197.802 9.04652L196.988 10.9066C196.836 11.2583 196.848 11.6036 196.991 11.8793L201.037 19.614C200.892 19.3383 200.879 18.9929 201.034 18.6412L201.849 16.7811Z" fill="#EBE9E9" stroke="#A66CFF" stroke-miterlimit="10"/>
<path d="M204.716 22.0729C204.868 21.7212 204.855 21.3758 204.709 21.0969L200.663 13.3623C200.809 13.6411 200.822 13.9865 200.669 14.3382L199.855 16.1982C199.703 16.5499 199.716 16.8953 199.858 17.1709L203.905 24.9056C203.759 24.63 203.746 24.2846 203.901 23.9328L204.716 22.0729Z" fill="#EBE9E9" stroke="#A66CFF" stroke-miterlimit="10"/>
<path d="M207.581 27.3644C207.736 27.0127 207.72 26.6641 207.577 26.3884L203.531 18.6538C203.677 18.9326 203.69 19.278 203.534 19.6297L202.72 21.4897C202.568 21.8414 202.581 22.1868 202.726 22.4625L206.773 30.1971C206.627 29.9215 206.614 29.5761 206.766 29.2244L207.581 27.3644Z" fill="#EBE9E9" stroke="#A66CFF" stroke-miterlimit="10"/>
<path d="M194.829 26.7212C194.681 26.436 194.389 26.2237 193.999 26.154L191.987 25.8022C191.597 25.7357 191.309 25.5235 191.16 25.2383L195.207 32.9729C195.355 33.2581 195.644 33.4704 196.034 33.5369L198.046 33.8886C198.435 33.9583 198.727 34.1706 198.876 34.4558L194.829 26.7212Z" fill="#A66CFF"/>
<path d="M197.693 32.0095C197.545 31.7243 197.256 31.512 196.866 31.4455L194.854 31.0938C194.465 31.0241 194.176 30.815 194.027 30.5298L198.074 38.2644C198.223 38.5496 198.511 38.7619 198.901 38.8284L200.913 39.1802C201.303 39.2499 201.591 39.459 201.74 39.7441L197.693 32.0095Z" fill="#A66CFF"/>
<path d="M210.441 31.6799L206.395 23.9453C206.54 24.2242 206.553 24.5696 206.398 24.9213L201.695 35.6851C201.385 36.3981 200.501 36.8733 199.731 36.7371L197.719 36.3854C197.329 36.3157 197.038 36.1034 196.889 35.8182L200.935 43.5528C201.084 43.838 201.375 44.0503 201.765 44.12L203.777 44.4718C204.547 44.6049 205.431 44.1327 205.742 43.4198L210.444 32.6559C210.599 32.3042 210.584 31.9556 210.441 31.6799Z" fill="#EBE9E9" stroke="#A66CFF" stroke-miterlimit="10"/>
<path d="M200.73 36.601C200.413 36.7373 200.064 36.7974 199.735 36.7404L197.723 36.3887C197.333 36.319 197.042 36.1067 196.893 35.8215L200.939 43.5562C201.088 43.8413 201.379 44.0536 201.769 44.1234L203.781 44.4751C204.095 44.529 204.428 44.4782 204.735 44.3547L200.73 36.601Z" fill="#A66CFF"/>
<path d="M194.097 2.21484C194.867 2.34792 195.244 3.04189 194.934 3.75484L194.116 5.62747C193.806 6.33408 194.176 7.0217 194.937 7.15478L196.965 7.50963C197.735 7.64271 198.112 8.33668 197.801 9.04962L196.987 10.9096C196.677 11.6225 197.05 12.3133 197.82 12.4464L199.832 12.7981C200.602 12.9312 200.98 13.6283 200.669 14.3412L199.855 16.2013C199.544 16.9142 199.918 17.6049 200.688 17.738L202.7 18.0898C203.47 18.2228 203.844 18.9167 203.53 19.6329L202.716 21.4929C202.405 22.2058 202.782 22.8965 203.552 23.0328L205.565 23.3846C206.335 23.5176 206.708 24.2116 206.395 24.9277L201.692 35.6916C201.382 36.4045 200.498 36.8798 199.728 36.7435L197.716 36.3918C196.946 36.2588 196.569 35.5616 196.879 34.8487L197.694 32.9887C198.004 32.2789 197.63 31.585 196.86 31.4519L194.848 31.1002C194.078 30.9671 193.704 30.27 194.018 29.5571L194.829 27.7003C195.14 26.9873 194.766 26.2934 193.993 26.1571L191.981 25.8054C191.211 25.6723 190.837 24.9752 191.147 24.2686L191.962 22.4086C192.272 21.6956 191.898 21.0017 191.125 20.8655L189.113 20.5137C188.343 20.3807 187.459 20.8528 187.148 21.5658L174.667 50.1374C174.357 50.8503 173.469 51.3225 172.699 51.1862L165.88 49.9948C165.111 49.8617 164.733 49.1678 165.044 48.4549L177.525 19.8832C177.836 19.1702 177.462 18.4764 176.695 18.3401L174.683 17.9883C173.913 17.8553 173.026 18.3274 172.715 19.0404L171.901 20.9003C171.59 21.6101 170.706 22.0854 169.936 21.9491L167.924 21.5975C167.154 21.4644 166.267 21.9365 165.957 22.6494L165.145 24.5063C164.835 25.2192 163.951 25.6945 163.181 25.5583L161.169 25.2065C160.399 25.0734 159.512 25.5456 159.201 26.2554L158.387 28.1153C158.076 28.8283 157.192 29.3036 156.422 29.1673L154.41 28.8156C153.64 28.6825 153.266 27.9854 153.58 27.2725L158.282 16.5086C158.593 15.7957 159.477 15.3204 160.247 15.4566L162.259 15.8084C163.029 15.9414 163.91 15.4725 164.223 14.7595L165.038 12.8995C165.348 12.1865 166.235 11.7113 167.005 11.8476L169.017 12.1992C169.787 12.3323 170.668 11.8633 170.982 11.1504L171.796 9.29044C172.107 8.5775 172.994 8.10218 173.764 8.23843L175.776 8.59018C176.546 8.72327 177.427 8.25429 177.741 7.54135L178.555 5.68132C178.866 4.96837 179.753 4.4963 180.523 4.63256L182.535 4.98423C183.302 5.11731 184.189 4.64524 184.499 3.9323L185.314 2.07227C185.624 1.35932 186.512 0.887178 187.281 1.02343L194.1 2.21484H194.097Z" fill="#EBE9E9" stroke="#A66CFF" stroke-miterlimit="10"/>
<path d="M77.1999 171.103C76.3855 170.422 74.8519 169.861 73.7904 169.861H55.7577C54.6962 169.861 53.5301 170.679 53.1657 171.677L46.3024 190.53C45.938 191.528 46.3088 192.904 47.1199 193.585L60.9352 205.176C61.7496 205.857 63.2832 206.418 64.3447 206.418H82.3774C83.4389 206.418 84.605 205.6 84.9694 204.602L91.8326 185.749C92.197 184.751 91.8263 183.376 91.0151 182.694L77.1999 171.103Z" fill="black" stroke="black" stroke-linecap="round" stroke-linejoin="round"/>
<path d="M63.0765 204.602C62.7121 205.601 61.752 205.857 60.9377 205.176L47.1224 193.585C46.308 192.904 45.9405 191.529 46.3049 190.53L53.1681 171.677C53.5325 170.679 54.4926 170.422 55.307 171.104L69.1223 182.694C69.9366 183.376 70.3042 184.751 69.9398 185.749L63.0765 204.602Z" fill="#EBE9E9" stroke="black" stroke-linecap="round" stroke-linejoin="round"/>
<path d="M60.4722 190.283C59.4677 189.44 59.1065 187.523 59.6674 186.002C59.8163 185.603 60.0127 185.27 60.2409 185.01C59.9335 184.332 59.5184 183.746 59.0114 183.318C57.2528 181.842 55.0316 182.805 54.0493 185.464C53.0671 188.125 53.6976 191.478 55.4562 192.951C57.2148 194.428 59.436 193.464 60.4183 190.806C60.4722 190.657 60.5229 190.508 60.5672 190.353C60.5356 190.331 60.5039 190.305 60.4722 190.28V190.283Z" fill="black"/>
<path d="M64.0239 188.902C63.5803 188.252 62.9244 187.97 62.2875 188.246C61.6506 188.521 61.1912 189.285 61.0391 190.191C61.4827 190.841 62.1386 191.123 62.7755 190.847C63.4124 190.571 63.8718 189.808 64.0239 188.902Z" fill="black"/>
<path d="M63.0765 204.602C62.7121 205.601 63.2857 206.418 64.3471 206.418H82.3799C83.4414 206.418 84.6074 205.601 84.9718 204.602L91.8351 185.749C92.1995 184.751 91.626 183.933 90.5645 183.933H72.5318C71.4703 183.933 70.3042 184.751 69.9398 185.749L63.0765 204.602Z" fill="#A66CFF" stroke="black" stroke-miterlimit="10"/>
<path d="M55.3041 171.103C54.4898 170.422 54.6926 169.861 55.7572 169.861H73.79C74.8515 169.861 76.3851 170.419 77.1994 171.103L91.0147 182.694C91.829 183.376 91.6262 183.936 90.5616 183.936H72.5288C71.4674 183.936 69.9337 183.379 69.1194 182.694L55.3041 171.103Z" fill="#EBE9E9" stroke="black" stroke-linecap="round" stroke-linejoin="round"/>
<path d="M255.169 19.9212C254.209 19.1132 252.393 18.4541 251.139 18.4541H229.826C228.572 18.4541 227.193 19.4174 226.766 20.5993L218.657 42.878C218.229 44.0567 218.663 45.6822 219.623 46.4871L235.948 60.1851C236.908 60.9931 238.724 61.6522 239.979 61.6522H261.291C262.546 61.6522 263.924 60.6889 264.352 59.507L272.46 37.2283C272.888 36.0496 272.454 34.4241 271.494 33.6193L255.169 19.9212Z" fill="black" stroke="black" stroke-linecap="round" stroke-linejoin="round"/>
<path d="M238.476 59.5102C238.048 60.6889 236.911 60.993 235.948 60.1882L219.623 46.4902C218.663 45.6822 218.225 44.0599 218.656 42.8811L226.765 20.6024C227.193 19.4237 228.33 19.1195 229.293 19.9243L245.618 33.6224C246.578 34.4304 247.016 36.0527 246.585 37.2314L238.476 59.5102Z" fill="black" stroke="black" stroke-linecap="round" stroke-linejoin="round"/>
<path d="M225.7 33.6383L226.581 34.3766L227.205 32.6719L227.671 33.0616L227.047 34.7663L227.934 35.511L227.626 36.3506L226.739 35.606L226.115 37.3107L225.649 36.921L226.273 35.2163L225.393 34.478L225.7 33.6383Z" fill="#EBE9E9"/>
<path d="M229.936 37.5864C230.608 35.7455 231.543 35.004 232.319 35.6567C233.111 36.3221 233.172 37.8875 232.497 39.7348C231.828 41.5663 230.912 42.3362 230.117 41.6676C229.334 41.0117 229.268 39.4179 229.936 37.5864ZM231.86 39.2024C232.307 37.9856 232.414 37.0129 231.964 36.6327C231.508 36.2493 231.02 36.8957 230.573 38.1219C230.13 39.3387 230.022 40.3178 230.478 40.698C230.934 41.0814 231.41 40.4382 231.86 39.2024Z" fill="#EBE9E9"/>
<path d="M232.098 41.563L232.751 42.1112L232.307 43.3279L231.654 42.7797L232.101 41.563H232.098Z" fill="#EBE9E9"/>
<path d="M234.345 39.7918L233.651 39.2088L233.926 38.4515C234.31 38.743 234.744 38.7621 235.073 38.0745L235.606 38.5212L233.486 44.3167L232.871 43.8033L234.338 39.7887L234.345 39.7918Z" fill="#EBE9E9"/>
<path d="M234.528 43.0207C234.787 42.3078 235.215 41.9402 235.64 41.9782L235.649 41.9529C235.462 41.4871 235.434 41.0055 235.637 40.451C235.991 39.475 236.647 39.3007 237.31 39.8552C237.972 40.4098 238.203 41.316 237.848 42.2824C237.652 42.8211 237.354 43.0619 237.002 43.0777L236.993 43.1031C237.249 43.6164 237.265 44.3421 237.009 45.0392C236.574 46.2242 235.814 46.4397 235.12 45.8566C234.426 45.2736 234.103 44.1804 234.524 43.0207H234.528ZM236.381 44.5226C236.597 43.9333 236.517 43.363 236.144 43.0493C235.766 42.7324 235.389 42.9225 235.174 43.5087C234.968 44.0727 235.076 44.6114 235.446 44.9219C235.804 45.2229 236.182 45.0677 236.381 44.5226ZM237.215 41.8958C237.379 41.4427 237.303 40.9833 236.986 40.7139C236.663 40.4446 236.365 40.5872 236.201 41.0435C236.036 41.4998 236.105 41.9751 236.429 42.2444C236.746 42.5106 237.05 42.3489 237.218 41.8958H237.215Z" fill="#EBE9E9"/>
<path d="M238.476 59.5103C238.048 60.6891 238.723 61.6555 239.978 61.6555H261.29C262.545 61.6555 263.924 60.6922 264.351 59.5103L272.46 37.2316C272.888 36.0529 272.213 35.0864 270.958 35.0864H249.646C248.391 35.0864 247.013 36.0497 246.585 37.2316L238.476 59.5103Z" fill="#EBE9E9" stroke="black" stroke-linecap="round" stroke-linejoin="round"/>
<path d="M249.805 49.266L252.923 54.1964L263.04 42.6086C263.04 42.6086 258.37 46.5568 254.941 49.304C252.707 51.0943 249.805 49.2691 249.805 49.2691V49.266Z" fill="black"/>
<path d="M229.294 19.9212C228.334 19.1132 228.572 18.4541 229.827 18.4541H251.139C252.394 18.4541 254.206 19.1132 255.17 19.9212L271.494 33.6193C272.455 34.4273 272.217 35.0863 270.962 35.0863H249.65C248.395 35.0863 246.583 34.4273 245.619 33.6193L229.294 19.9212Z" fill="#EBE9E9" stroke="black" stroke-linecap="round" stroke-linejoin="round"/>
<path d="M98.8222 172.586C97.4629 172.523 95.4635 173.147 94.3798 173.971L75.9827 187.996C74.899 188.823 74.3445 190.562 74.7501 191.861L82.4118 216.431C82.8174 217.73 84.2623 218.849 85.6217 218.912L108.731 219.996C110.09 220.059 112.089 219.435 113.173 218.611L131.57 204.587C132.654 203.76 133.208 202.02 132.803 200.721L125.141 176.151C124.735 174.852 123.29 173.733 121.931 173.67L98.8222 172.59V172.586Z" fill="black" stroke="black" stroke-linecap="round" stroke-linejoin="round"/>
<path d="M110.465 217.746C110.87 219.045 110.088 220.059 108.728 219.996L85.6193 218.912C84.26 218.849 82.8151 217.733 82.4095 216.431L74.7477 191.861C74.3421 190.562 75.1248 189.548 76.4841 189.611L99.593 190.695C100.952 190.758 102.397 191.874 102.803 193.176L110.465 217.746Z" fill="#EBE9E9" stroke="black" stroke-linecap="round" stroke-linejoin="round"/>
<path d="M103.776 196.357C97.9328 196.357 102.518 210.147 97.543 210.056C92.7964 209.967 92.9327 201.89 88.4776 201.662C84.0256 201.434 88.823 212.191 84.6435 211.887L80.8887 211.614" stroke="black" stroke-linecap="round" stroke-linejoin="round"/>
<path d="M110.465 217.746C110.87 219.045 112.087 219.435 113.171 218.608L131.568 204.583C132.651 203.756 133.206 202.017 132.8 200.718L125.139 176.148C124.733 174.849 123.516 174.459 122.433 175.286L104.035 189.31C102.952 190.137 102.397 191.877 102.803 193.176L110.465 217.746Z" fill="#EBE9E9" stroke="black" stroke-linecap="round" stroke-linejoin="round"/>
<path d="M76.4874 189.615C75.128 189.551 74.8999 188.822 75.9835 187.999L94.3807 173.974C95.4643 173.147 97.4638 172.526 98.8231 172.589L121.932 173.673C123.291 173.737 123.519 174.465 122.436 175.289L104.039 189.314C102.955 190.141 100.956 190.762 99.5963 190.698L76.4874 189.615Z" fill="#EBE9E9" stroke="black" stroke-linecap="round" stroke-linejoin="round"/>
<path d="M114.326 179.941C115.555 179.992 116.727 180.461 117.653 181.272L130.143 192.203L125.137 176.151C124.731 174.852 123.286 173.733 121.927 173.67L98.8182 172.586C97.4589 172.523 95.4595 173.147 94.3758 173.971L87.9941 178.835L114.326 179.938V179.941Z" fill="black" stroke="black" stroke-linecap="round" stroke-linejoin="round"/>
<path d="M118.242 195.702L122.038 192.805L121.113 189.897C120.634 188.391 119.278 187.897 118.103 188.794L116.445 190.058L118.242 195.702Z" fill="black"/>
<path d="M113.651 199.203L117.447 196.307L115.65 190.663L113.993 191.928C112.817 192.824 112.244 194.789 112.725 196.291L113.651 199.2V199.203Z" fill="black"/>
<path d="M120.39 202.441L122.048 201.177C123.223 200.28 123.797 198.316 123.315 196.814L122.39 193.905L118.594 196.801L120.39 202.445V202.441Z" fill="black"/>
<path d="M117.935 204.311L119.593 203.046L117.796 197.403L114 200.299L114.925 203.208C115.404 204.713 116.76 205.207 117.935 204.311Z" fill="black"/>
<path d="M117.542 177.276C113.106 179.145 106.997 177.615 103.965 173.873L52.5122 110.345C49.483 106.603 50.6332 102.011 55.0693 100.142L184.797 45.47C189.233 43.6005 195.342 45.131 198.374 48.8731L249.827 112.401C252.856 116.143 251.706 120.735 247.27 122.604L117.542 177.276Z" fill="black" stroke="black" stroke-miterlimit="10"/>
<path d="M117.78 176.328C113.344 178.198 107.235 176.667 104.203 172.925L52.7505 109.397C49.7212 105.655 50.8715 101.064 55.3076 99.1942L185.035 44.5225C189.471 42.653 195.58 44.1834 198.613 47.9256L250.065 111.454C253.094 115.196 251.944 119.787 247.508 121.657L117.78 176.328Z" fill="#D0F500"/>
<path d="M213.429 66.2246L179.48 150.327L247.505 121.66C251.941 119.79 253.091 115.199 250.062 111.457L213.429 66.2278V66.2246Z" fill="#A66CFF"/>
<path d="M183.266 148.73C196.77 116.248 201.225 119.217 197.914 142.557L183.266 148.73Z" fill="#D0F500"/>
<path d="M155.668 147.535C155.942 145.234 153.66 143.071 150.57 142.702C147.481 142.334 144.754 143.9 144.479 146.201C144.205 148.502 146.487 150.665 149.577 151.034C152.666 151.402 155.393 149.836 155.668 147.535Z" stroke="black" stroke-linecap="round" stroke-linejoin="round"/>
<path d="M153.352 150.428C154.249 149.575 153.483 147.316 151.643 145.383C149.803 143.45 147.585 142.575 146.689 143.428C145.793 144.281 146.558 146.54 148.398 148.473C150.238 150.406 152.456 151.281 153.352 150.428Z" stroke="black" stroke-linecap="round" stroke-linejoin="round"/>
<path d="M146.848 150.137L155.609 146.445" stroke="black" stroke-linecap="round" stroke-linejoin="round"/>
<path d="M144.535 147.275L153.296 143.584" stroke="black" stroke-linecap="round" stroke-linejoin="round"/>
<path d="M131.149 134.16L132.886 130.589C133.668 128.98 124.143 123.184 111.608 117.642C107.701 115.915 103.962 114.416 100.642 113.222C100.642 113.222 100.642 113.222 100.638 113.222C100.604 113.209 100.572 113.196 100.537 113.187C100.277 113.092 100.017 113 99.7607 112.911C99.7258 112.899 99.691 112.886 99.653 112.873C104.061 112.895 109.831 112.788 116.146 112.547C129.951 112.021 141.118 111.048 141.089 110.373C141.089 110.373 140.915 106.248 140.915 106.244C140.886 105.57 129.673 105.452 115.87 105.978C110.071 106.2 104.742 106.498 100.505 106.824C100.632 106.771 100.756 106.717 100.882 106.663C100.955 106.631 101.028 106.603 101.101 106.571C101.589 106.362 102.08 106.149 102.581 105.931C102.689 105.883 102.796 105.836 102.904 105.788C103.367 105.585 103.832 105.379 104.305 105.167C104.358 105.142 104.412 105.12 104.469 105.094C104.979 104.866 105.493 104.635 106.009 104.397C106.133 104.34 106.26 104.283 106.383 104.226C106.906 103.985 107.432 103.744 107.964 103.497C107.964 103.497 107.971 103.497 107.971 103.494C108.357 103.314 108.741 103.133 109.124 102.952C109.191 102.921 109.254 102.892 109.317 102.86C109.634 102.711 109.948 102.562 110.258 102.414C110.347 102.369 110.436 102.328 110.528 102.284C110.81 102.147 111.092 102.014 111.371 101.878C111.523 101.805 111.672 101.732 111.821 101.659C112.036 101.555 112.255 101.45 112.467 101.343C112.61 101.273 112.749 101.203 112.892 101.134C113.107 101.026 113.326 100.921 113.538 100.813C113.709 100.728 113.874 100.646 114.042 100.563C114.222 100.471 114.406 100.382 114.584 100.291C114.774 100.196 114.961 100.101 115.148 100.005C115.3 99.9294 115.455 99.8502 115.607 99.7741C115.813 99.6696 116.013 99.565 116.215 99.4604C116.345 99.3939 116.475 99.3273 116.602 99.2608C116.798 99.1594 116.989 99.0612 117.179 98.9598C117.312 98.8901 117.445 98.8204 117.575 98.7538C117.771 98.6493 117.965 98.5478 118.161 98.4433C118.278 98.3799 118.399 98.3197 118.513 98.2563C118.725 98.1423 118.931 98.0314 119.137 97.9205C119.232 97.8698 119.327 97.8191 119.422 97.7684C119.631 97.6543 119.837 97.5434 120.04 97.4325C120.126 97.3849 120.217 97.3374 120.303 97.2899C120.503 97.1822 120.696 97.0744 120.889 96.9667C120.978 96.9192 121.067 96.8685 121.152 96.8209C121.342 96.7132 121.529 96.6086 121.713 96.5041C121.795 96.4566 121.881 96.409 121.963 96.3615C122.15 96.2538 122.334 96.1492 122.515 96.0446C122.591 96.0003 122.667 95.959 122.74 95.9147C122.917 95.8133 123.085 95.7119 123.256 95.6105C123.323 95.5693 123.396 95.5282 123.462 95.4901C127.369 93.177 129.635 91.4406 129.321 90.8322L127.318 86.9221C126.697 85.7117 116.133 89.4158 103.718 95.1986C102.856 95.601 102.007 96.0002 101.174 96.3995C101.741 95.1637 102.239 93.9248 102.663 92.6985C102.79 92.331 102.91 91.9634 103.024 91.5959C103.253 90.8639 102.508 79.4156 102.483 79.3079L55.3015 99.1911C50.1968 101.343 50.2348 106.295 52.7444 109.394L87.628 152.462C90.7681 155.571 93.6801 157.047 95.6573 156.166L98.7594 154.785C101.538 153.546 101.763 147.985 99.7797 140.795C106.691 146.28 112.495 149.211 114.096 147.69L116.672 145.241C118.741 143.276 113.037 134.604 103.845 125.599C104.881 126.08 105.943 126.562 107.03 127.043C119.565 132.582 130.36 135.767 131.143 134.157L131.149 134.16Z" fill="#A66CFF"/>
<path d="M109.068 158.011L112.639 156.506C115.086 155.476 118.061 156.544 119.984 158.917C121.039 160.222 121.47 161.578 121.084 162.691C120.805 163.47 120.149 164.123 118.999 164.608L115.58 166.046L109.068 158.008V158.011ZM117.731 163.258C119.474 162.526 119.395 161.306 118.102 159.709C116.809 158.112 115.114 157.336 113.539 157.998L112.053 158.622L116.296 163.86L117.728 163.258H117.731Z" fill="black"/>
<path d="M121.385 159.731C120 158.023 120.244 156.141 122.165 155.333C124.278 154.443 126.55 155.387 128.217 157.443L123.454 159.449C124.3 160.282 125.311 160.596 126.297 160.181C126.975 159.896 127.155 159.459 126.991 158.939L128.705 158.217C129.291 159.341 128.955 160.644 127.263 161.357C125.086 162.272 122.773 161.452 121.379 159.731H121.385ZM122.627 158.381L125.546 157.152C124.902 156.442 123.942 156.17 123.147 156.502C122.225 156.889 122.168 157.561 122.624 158.381H122.627Z" fill="black"/>
<path d="M132.13 158.118L132.105 158.128L132.688 158.847L131.012 159.554L124.5 151.515L126.24 150.783L128.645 153.752L128.683 153.736C128.651 153.102 128.914 152.494 129.823 152.111C131.474 151.417 133.664 152.168 135.121 153.967C136.633 155.834 136.462 157.488 134.811 158.182C133.889 158.568 132.954 158.495 132.133 158.118H132.13ZM133.353 154.709C132.488 153.641 131.401 153.102 130.429 153.514C129.326 153.977 129.544 154.924 130.413 155.995C131.268 157.054 132.415 157.472 133.391 157.063C134.288 156.686 134.259 155.824 133.356 154.712L133.353 154.709Z" fill="black"/>
<path d="M131.75 148.467L133.493 147.735L134.605 149.107L132.862 149.839L131.75 148.467ZM133.588 150.738L135.331 150.007L140.001 155.773L138.258 156.505L133.588 150.738Z" fill="black"/>
<path d="M136.072 149.693L136.981 149.31L135.523 147.51L137.228 146.794L138.686 148.593L139.814 148.118L140.634 149.129L139.506 149.604L141.984 152.662C142.33 153.09 142.716 153.121 143.103 152.96C143.321 152.868 143.607 152.732 143.607 152.732L144.516 153.857C144.516 153.857 144.139 154.047 143.445 154.338C142.599 154.693 141.43 154.795 140.546 153.705L137.805 150.32L136.895 150.704L136.075 149.693H136.072Z" fill="black"/>
<path d="M117.78 176.328C113.344 178.198 107.235 176.667 104.203 172.925L52.7505 109.397C49.7212 105.655 50.8715 101.064 55.3076 99.1942L185.035 44.5225C189.471 42.653 195.58 44.1834 198.613 47.9256L250.065 111.454C253.094 115.196 251.944 119.787 247.508 121.657L117.78 176.328Z" stroke="black" stroke-miterlimit="10"/>
<path d="M194.819 99.3084C193.352 99.9263 191.331 99.4193 190.329 98.1835L184.131 90.5312C183.13 89.2922 183.51 87.7745 184.977 87.1566L199.328 81.1077C200.795 80.4898 202.817 80.9968 203.818 82.2325L210.016 89.8848C211.017 91.1238 210.637 92.6415 209.17 93.2594L194.819 99.3084Z" fill="#EBE9E9" stroke="black" stroke-miterlimit="10"/>
<path d="M205.919 84.8276L201.15 96.6403L209.167 93.2626C210.634 92.6447 211.014 91.1269 210.013 89.8879L205.916 84.8308L205.919 84.8276Z" fill="black" stroke="black" stroke-miterlimit="10"/>
<path d="M184.981 87.1566C183.514 87.7744 183.134 89.2922 184.135 90.5311L189.208 96.7955L192.374 95.4616C193.245 95.094 193.895 94.3367 194.126 93.4178C194.357 92.4989 194.142 91.5261 193.546 90.791L189.17 85.3916L184.978 87.1566H184.981Z" stroke="black" stroke-miterlimit="10"/>
<path d="M193.971 91.4977L200.14 88.8994" stroke="black" stroke-miterlimit="10"/>
<path d="M204.87 83.5349L201.705 84.8689C200.833 85.2365 200.184 85.9937 199.952 86.9127C199.721 87.8316 199.936 88.8043 200.532 89.5395L204.978 95.0276" stroke="black" stroke-miterlimit="10"/>
<path d="M202.861 92.4102L204.981 95.0275" stroke="#EBE9E9" stroke-miterlimit="10"/>
<path d="M133.587 46.8958L131.949 43.3628L89.125 63.2111L90.7632 66.7442C91.5015 68.338 101.685 65.1852 113.511 59.7035C125.336 54.2217 134.323 48.4865 133.584 46.8926L133.587 46.8958Z" fill="#D0F500" stroke="black" stroke-miterlimit="10"/>
<path d="M90.7644 66.7444C91.2714 67.8407 96.2557 66.6905 103.166 64.0795L100.359 59.146L98.4832 60.3627L97.4027 59.371L89.123 63.2081L90.7612 66.7412L90.7644 66.7444Z" fill="black" stroke="black" stroke-miterlimit="10"/>
<path d="M111.904 56.1559C123.729 50.6743 132.716 44.9385 131.977 43.3444C131.238 41.7503 121.053 44.9018 109.228 50.3833C97.4026 55.8649 88.4154 61.6008 89.1543 63.1949C89.8933 64.789 100.078 61.6375 111.904 56.1559Z" fill="#A66CFF" stroke="black" stroke-miterlimit="10"/>
<path d="M118.296 32.3961L115.866 29.9722L110.127 35.7264C106.645 38.106 102.488 41.6011 98.3082 45.7932C94.1287 49.9853 90.6464 54.1553 88.2794 57.6439L82.541 63.3982L84.9714 65.8221C86.9898 67.8342 96.0838 61.9817 105.286 52.7515C114.487 43.5212 120.311 34.4082 118.293 32.3961H118.296Z" fill="#D0F500" stroke="black" stroke-miterlimit="10"/>
<path d="M97.7005 59.6433L94.4622 56.668L92.9697 58.3537L88.9456 56.6933C88.7174 57.0134 88.4956 57.3334 88.2833 57.6439L87.8714 58.0558L82.5449 63.3982L84.9753 65.8221C86.4265 67.267 91.528 64.6529 97.7005 59.6433Z" fill="#A66CFF" stroke="black" stroke-miterlimit="10"/>
<path d="M102.853 50.3382C112.055 41.1073 117.879 31.9937 115.861 29.9823C113.843 27.971 104.748 33.8235 95.5463 43.0544C86.3444 52.2852 80.5204 61.3989 82.5381 63.4102C84.5558 65.4216 93.6511 59.5691 102.853 50.3382Z" fill="#A66CFF" stroke="black" stroke-miterlimit="10"/>
<path d="M101.399 22.9535L98.4712 21.5847L97.5523 23.5524C93.5757 25.8275 88.452 32.469 84.4341 41.0719C80.4131 49.6779 78.607 57.8688 79.415 62.3778L78.4961 64.3455L81.4207 65.7112C85.2738 67.511 92.869 59.3992 98.3857 47.5897C103.902 35.7802 105.252 24.7502 101.399 22.9472V22.9535Z" fill="#D0F500" stroke="black" stroke-miterlimit="10"/>
<path d="M92.2935 58.0781L88.6971 56.5952L87.8701 58.0591L84.0772 58.7815L81.7324 62.2291L82.4485 65.9617C85.012 66.0821 88.6717 63.0529 92.2935 58.0781Z" fill="black" stroke="black" stroke-miterlimit="10"/>
<path d="M95.4644 46.209C100.981 34.4001 102.33 23.368 98.477 21.5681C94.6242 19.7682 87.0288 27.8822 81.5122 39.6911C75.9955 51.5 74.6468 62.5321 78.4996 64.332C82.3524 66.1318 89.9478 58.0179 95.4644 46.209Z" fill="#A66CFF" stroke="black" stroke-miterlimit="10"/>
<path d="M91.833 41.6518C91.8108 28.6192 86.1326 18.0613 79.1552 18.074L75.9327 18.0803V18.5366C70.1468 20.6976 65.7994 30.2511 65.8184 41.6994C65.8406 53.1477 70.2228 62.6853 76.0151 64.8273V65.2836L79.2344 65.2772H78.493C85.4703 65.2645 91.852 54.6876 91.8298 41.6518H91.833Z" fill="#D0F500" stroke="black" stroke-miterlimit="10"/>
<path d="M87.8721 58.0559L84.0793 58.7784L75.8281 64.7449C75.8915 64.7703 75.9517 64.7988 76.0151 64.821V65.2773L78.6102 65.2709C78.6102 65.2709 78.6102 65.2709 78.6134 65.2709C82.1622 65.2646 85.5812 62.4603 87.869 58.0527L87.8721 58.0559Z" fill="#A66CFF" stroke="black" stroke-miterlimit="10"/>
<path d="M75.9521 65.2858C82.9293 65.2737 88.567 54.6977 88.5442 41.6638C88.5215 28.6299 82.8469 18.0737 75.8697 18.0859C68.8925 18.098 63.2548 28.674 63.2775 41.7079C63.3003 54.7418 68.9749 65.298 75.9521 65.2858Z" fill="#A66CFF" stroke="black" stroke-miterlimit="10"/>
<path d="M83.7818 37.4976C79.3013 25.2571 69.374 17.6397 61.614 20.482L59.0822 21.4231L59.1488 21.6068C52.7862 25.5581 50.8723 36.7942 54.9915 48.0428C59.1488 59.3961 67.9893 66.7695 75.4419 65.5115L75.5021 65.6731L77.6822 64.8651L78.0339 64.732C85.6481 61.7599 88.2274 49.6367 83.7818 37.4976Z" fill="#D0F500" stroke="black" stroke-miterlimit="10"/>
<path d="M75.2757 65.7571C83.0371 62.9153 85.696 50.6897 81.2146 38.4503C76.7332 26.211 66.8086 18.5928 59.0473 21.4346C51.2859 24.2764 48.627 36.502 53.1084 48.7413C57.5898 60.9806 67.5144 68.5988 75.2757 65.7571Z" fill="#A66CFF" stroke="black" stroke-miterlimit="10"/>
<path d="M80.3524 56.4081L80.5869 56.4778L81.2364 54.1108C84.0312 43.93 76.1413 32.7257 63.6156 29.0881C51.09 25.4505 38.6689 30.7548 35.8742 40.9356L35.2246 43.3026L35.4591 43.3723C34.5941 52.7547 42.1576 62.3556 53.5742 65.67C64.9908 68.9844 76.3187 64.8715 80.3524 56.4113V56.4081Z" fill="#D0F500" stroke="black" stroke-miterlimit="10"/>
<path d="M80.4059 57.0827C83.6328 47.0321 76.1776 35.651 63.7542 31.6623C51.3309 27.6736 38.644 32.5878 35.417 42.6384C32.1901 52.689 39.6453 64.0701 52.0686 68.0588C64.4919 72.0475 77.1789 67.1333 80.4059 57.0827Z" fill="#D0F500" stroke="black" stroke-miterlimit="10"/>
<path d="M78.4191 61.158C75.7226 54.8302 67.782 40.4477 51.9546 42.5359L34.8915 44.7856C33.2026 54.5514 40.9214 64.8653 52.845 68.3255C63.2761 71.3547 73.6344 68.1828 78.4223 61.1548L78.4191 61.158Z" fill="#A66CFF"/>
<path d="M59.0237 39.7665H59.0111C57.2651 39.5288 55.5731 39.7031 53.9349 40.2766C53.0287 40.5967 52.1795 41.0561 51.3841 41.6518L49.9488 40.7931L47.7054 41.8926L49.7681 43.1252C49.6953 43.2045 49.6224 43.2805 49.5527 43.3597C49.4386 43.4896 49.3372 43.6195 49.2326 43.7526L46.834 42.3172L44.5938 43.4199L48.0983 45.5144C47.7275 46.2717 47.4994 47.0258 47.4265 47.78C47.2808 49.2502 47.6166 50.6381 48.4373 51.9404C49.258 53.2427 50.4811 54.3802 52.1034 55.3498C53.336 56.0881 54.5496 56.5983 55.7442 56.8866C56.1846 56.9912 56.6187 57.0736 57.0433 57.1306C57.769 57.2289 58.4724 57.2542 59.1505 57.213C60.2247 57.1433 61.2006 56.9278 62.0815 56.5761C62.9624 56.2244 63.6975 55.7744 64.2932 55.2263L59.93 52.5899C59.217 53.1444 58.3995 53.4202 57.4679 53.417C57.2683 53.417 57.0655 53.4011 56.8659 53.3758C56.1339 53.2775 55.3925 53.0051 54.6447 52.5583C53.3645 51.7915 52.6484 50.8441 52.4868 49.7097C52.4203 49.2344 52.4742 48.7432 52.6389 48.2331L55.4907 49.9378L57.7151 48.8256L53.6592 46.4016C53.7606 46.2717 53.8652 46.1386 53.9793 46.0087C54.049 45.9263 54.1219 45.8534 54.1947 45.7742L58.577 48.3947L60.7982 47.2793L55.9153 44.361C56.4762 44.0346 57.0623 43.8065 57.6739 43.6861C58.2506 43.572 58.8241 43.553 59.3913 43.6322C60.1581 43.7367 60.9186 44.0125 61.6696 44.4624C62.655 45.0518 63.2856 45.7298 63.5517 46.4903C63.8211 47.2539 63.7165 48.005 63.2475 48.7464L67.6266 51.3669C68.4029 50.2072 68.761 49.0379 68.6976 47.856C68.6311 46.6741 68.197 45.5461 67.3921 44.4656C66.5873 43.3851 65.4656 42.4123 64.0143 41.5473C62.4237 40.5967 60.757 40.0009 59.0174 39.7665" fill="black"/>
<path d="M80.4059 57.0827C83.6328 47.0321 76.1776 35.651 63.7542 31.6623C51.3309 27.6736 38.644 32.5878 35.417 42.6384C32.1901 52.689 39.6453 64.0701 52.0686 68.0588C64.4919 72.0475 77.1789 67.1333 80.4059 57.0827Z" stroke="black" stroke-miterlimit="10"/>
<path d="M74.7698 51.0436L74.944 50.8725L73.1411 49.0474C66.2208 42.0478 53.0994 43.8065 43.8312 52.9702C34.5629 62.1339 32.6585 75.2362 39.5788 82.2357L41.3818 84.0608L41.5561 83.8897C48.7933 88.8613 60.4412 86.6655 68.8856 78.313C77.33 69.9604 79.6622 58.3378 74.7698 51.0468V51.0436Z" fill="#D0F500" stroke="black" stroke-miterlimit="10"/>
<path d="M39.576 82.2357L41.9176 84.5711L47.5198 78.9277L35.8592 67.134C34.6773 72.8915 35.8402 78.4524 39.5792 82.2326L39.576 82.2357Z" fill="black" stroke="black" stroke-miterlimit="10"/>
<path d="M70.7263 80.0972C79.994 70.9324 81.8969 57.8298 74.9766 50.8317C68.0562 43.8337 54.9332 45.5901 45.6655 54.7548C36.3977 63.9196 34.4949 77.0222 41.4152 84.0203C48.3355 91.0184 61.4585 89.2619 70.7263 80.0972Z" fill="#D0F500"/>
<path d="M76.2492 72.66L73.3784 70.9363L67.6875 82.7458C68.7205 81.9568 69.7249 81.0854 70.6882 80.1349C73.0108 77.8376 74.8708 75.2931 76.246 72.66H76.2492Z" fill="white"/>
<path d="M66.3242 83.7313L66.7361 84.7231L67.6867 82.749C67.2368 83.0912 66.7837 83.4207 66.3242 83.7313Z" fill="white"/>
<path d="M70.6885 80.1381C75.8882 74.9986 78.7685 68.6201 79.0759 62.7739C75.0264 60.1535 68.9584 58.1002 63.4893 59.431C55.6945 61.329 48.7647 67.7392 43.7962 79.948L41.9141 84.571C48.958 90.9622 61.6547 89.0705 70.6885 80.1381Z" fill="#A66CFF"/>
<path d="M57.6231 71.849L56.8119 69.3585L61.5902 67.1309C62.601 66.6588 63.3488 66.8204 63.6118 67.6347C63.8812 68.4649 63.4122 69.1525 62.4014 69.6214L57.6231 71.849ZM56.0293 66.9566L55.2466 64.5548L59.7936 62.435C60.7474 61.9914 61.4667 62.1435 61.7202 62.9198C61.9736 63.6961 61.53 64.3932 60.5763 64.8368L56.0293 66.9566ZM57.5787 57.6409L55.3353 58.6865L56.1497 61.1866L54.4164 61.9946L53.6021 59.4945L51.3587 60.5401L52.173 63.0402L50.218 63.9528L47.6641 65.1442L48.4974 67.7045L51.0513 66.5131L53.4088 73.7534L50.8549 74.9448L51.6882 77.5082L54.2422 76.3168L56.1972 75.4042L56.9989 77.8631L59.2423 76.8174L58.4406 74.3586L60.1739 73.5506L60.9755 76.0095L63.2189 74.9638L62.4173 72.5049L63.9762 71.7793C67.1639 70.2932 68.5739 68.091 67.8958 66.0061C67.4364 64.5928 66.2767 63.9939 64.5878 64.2316C65.7126 63.0782 66.0992 61.7981 65.7031 60.5781C65.0409 58.547 62.807 58.0844 59.6415 59.561L58.3931 60.1441L57.5787 57.644" fill="black"/>
<path d="M70.7263 80.0972C79.994 70.9324 81.8969 57.8298 74.9766 50.8317C68.0562 43.8337 54.9332 45.5901 45.6655 54.7548C36.3977 63.9196 34.4949 77.0222 41.4152 84.0203C48.3355 91.0184 61.4585 89.2619 70.7263 80.0972Z" stroke="black" stroke-miterlimit="10"/>
<path d="M88.891 78.7629C86.9264 67.229 78.9573 58.7339 70.3291 58.3125L70.2752 57.9924L67.3632 58.4868C57.6608 60.1376 51.5707 71.8932 53.7571 84.7421C55.9466 97.5909 65.5824 106.669 75.2848 105.015L78.1968 104.521L78.1429 104.201C86.1469 100.947 90.8555 90.2967 88.891 78.7597V78.7629Z" fill="#D0F500" stroke="black" stroke-miterlimit="10"/>
<path d="M85.5257 97.8444L85.5764 87.9614L57.6797 95.3285C61.8845 102.163 68.5703 106.162 75.2878 105.018L78.1998 104.524L78.1459 104.204C81.1181 102.997 83.6372 100.763 85.5289 97.8476L85.5257 97.8444Z" fill="black" stroke="black" stroke-miterlimit="10"/>
<path d="M56.5742 93.3512C57.5026 95.1859 58.6021 96.8557 59.8316 98.326L69.2361 96.7258L68.3204 91.3518L56.5742 93.3512Z" fill="#A66CFF" stroke="black" stroke-miterlimit="10"/>
<path d="M56.4219 93.0536L59.8472 92.5022L61.7452 95.1924L57.9618 95.7786L56.4219 93.0536Z" fill="black"/>
<path d="M78.1247 104.541C87.8271 102.89 93.9195 91.1344 91.7324 78.2853C89.5452 65.4362 79.9069 56.3587 70.2045 58.0102C60.5021 59.6617 54.4097 71.4168 56.5968 84.2659C58.7839 97.115 68.4223 106.193 78.1247 104.541Z" fill="#D0F500"/>
<path d="M91.8044 78.2654C91.0122 73.617 89.2473 69.4629 86.8549 66.1327C81.2433 63.208 64.5097 66.532 64.4717 91.767L64.459 99.6696C68.3818 103.44 73.2836 105.361 78.2014 104.524C87.9038 102.873 93.9939 91.1174 91.8075 78.2686L91.8044 78.2654Z" fill="#A66CFF"/>
<path d="M83.5239 76.4721L79.6201 74.3427L74.6105 79.8974L74.4838 79.8276L73.3779 70.9396L69.4742 68.8103L71.1282 79.7167L69.3221 78.7313L68.7612 80.7339L71.5116 82.2326L71.6542 83.1864L71.651 83.2054L68.5679 81.5229L68.0039 83.5255L71.106 85.2175L70.0984 88.9501L73.5712 90.8418L74.582 87.1124L77.6809 88.8044L78.2259 86.7892L75.1238 85.1003L75.1302 85.0812L75.6847 84.5109L78.4351 86.0096L78.9801 83.9976L77.1549 83.0026L83.5239 76.4721Z" fill="black"/>
<path d="M78.1247 104.541C87.8271 102.89 93.9195 91.1344 91.7324 78.2853C89.5452 65.4362 79.9069 56.3587 70.2045 58.0102C60.5021 59.6617 54.4097 71.4168 56.5968 84.2659C58.7839 97.115 68.4223 106.193 78.1247 104.541Z" stroke="black" stroke-miterlimit="10"/>
<path d="M100.25 81.4118C95.7317 71.5827 88.2283 65.011 82.0685 64.8715L81.7294 64.1301L78.6273 65.556C72.0904 68.5599 71.1747 80.5278 76.5804 92.2898C81.9861 104.052 91.6663 111.15 98.2032 108.146L101.305 106.72L100.966 105.978C104.87 101.213 104.769 91.2379 100.253 81.4087L100.25 81.4118Z" fill="#D0F500" stroke="black" stroke-miterlimit="10"/>
<path d="M98.2035 108.146L101.306 106.72L100.967 105.978C103.581 102.788 104.398 97.2615 103.295 91.0066L80.5352 99.0961C85.9599 106.606 93.0576 110.51 98.2067 108.146H98.2035Z" fill="black" stroke="black" stroke-miterlimit="10"/>
<path d="M84.002 103.193L87.2181 101.9L88.7708 103.339L85.4912 104.603L84.002 103.193Z" fill="#A66CFF" stroke="black" stroke-miterlimit="10"/>
<path d="M85.7608 93.3704L78.6504 96.2252C79.8291 98.2056 81.1283 100.002 82.4971 101.577L88.1436 99.3084L85.7576 93.3704H85.7608Z" fill="black" stroke="black" stroke-miterlimit="10"/>
<path d="M101.243 106.756C107.778 103.753 108.695 91.7829 103.29 80.0207C97.8846 68.2585 88.2049 61.1579 81.6694 64.1611C75.134 67.1643 74.2176 79.1341 79.6227 90.8963C85.0277 102.659 94.7074 109.759 101.243 106.756Z" fill="#D0F500"/>
<path d="M93.1698 74.2002L90.6603 72.8218L90.73 75.4232C90.2389 75.2616 89.7826 75.1824 89.358 75.1824C88.5595 75.1824 87.9416 75.4613 87.5043 76.0094C87.067 76.5608 86.8642 77.3719 86.8959 78.4461C86.9276 79.7516 87.2952 80.9779 87.9986 82.1218C88.7021 83.2625 89.6527 84.3334 90.8409 85.322L92.2858 86.5293C93.0431 87.1599 93.6039 87.7207 93.9652 88.2055C94.3264 88.6903 94.5133 89.1719 94.5324 89.6567C94.5419 90.1796 94.3613 90.5059 93.9969 90.6327C93.6293 90.7563 93.116 90.6391 92.4506 90.2747C91.7186 89.8723 91.1229 89.3367 90.6603 88.6618C90.1977 87.9901 89.9378 87.2296 89.8808 86.3772L86.709 84.6345C86.785 86.6624 87.349 88.4463 88.4105 89.9958C89.1678 91.1017 90.0931 92.0491 91.1894 92.8476L91.2592 95.4237L93.7687 96.802L93.7022 94.2766C94.8777 94.7614 95.8283 94.8597 96.5476 94.5555C97.4824 94.1626 97.9291 93.1454 97.8911 91.5072C97.8531 90.1289 97.4602 88.8139 96.7156 87.5686C95.9741 86.3202 94.9221 85.1351 93.5596 84.0166L92.3713 83.0311C91.7471 82.5241 91.2496 82.0267 90.8757 81.5355C90.5018 81.0444 90.3149 80.5469 90.3149 80.0431C90.3086 79.5773 90.4607 79.2731 90.7744 79.1464C91.0881 79.0165 91.5665 79.1305 92.2066 79.4823C92.853 79.8372 93.3568 80.2839 93.718 80.8226C94.0761 81.3613 94.2884 81.9507 94.3486 82.5939L97.5204 84.3366C97.4824 83.253 97.2352 82.1883 96.7821 81.1363C96.329 80.0875 95.7048 79.1242 94.9094 78.237C94.4056 77.6793 93.8511 77.1818 93.2396 76.7445L93.173 74.2033" fill="black"/>
<path d="M101.243 106.756C107.778 103.753 108.695 91.7829 103.29 80.0207C97.8846 68.2585 88.2049 61.1579 81.6694 64.1611C75.134 67.1643 74.2176 79.1341 79.6227 90.8963C85.0277 102.659 94.7074 109.759 101.243 106.756Z" stroke="black" stroke-miterlimit="10"/>
<path d="M128.34 90.1067L130.232 86.2379L87.823 65.5181L85.9313 69.387C85.3451 70.5847 94.3662 76.1964 106.074 81.9158C117.786 87.6383 127.754 91.3045 128.34 90.1067Z" fill="#D0F500" stroke="black" stroke-miterlimit="10"/>
<path d="M98.2857 70.6291L87.8229 65.5181L85.9312 69.387C85.5446 70.1791 89.3533 72.8978 95.3611 76.3041L98.2826 70.6291H98.2857Z" fill="#A66CFF" stroke="black" stroke-miterlimit="10"/>
<path d="M98.2854 70.629L95.2625 69.1523L92.4551 74.6056C93.3518 75.1474 94.3246 75.7146 95.3639 76.304L98.2854 70.629Z" fill="black" stroke="black" stroke-miterlimit="10"/>
<path d="M89.9622 73.0403C90.4248 73.3413 90.9191 73.6582 91.4451 73.9846L94.0972 68.582L92.6238 67.8628L89.959 73.0403H89.9622Z" fill="black"/>
<path d="M130.219 86.2706C130.804 85.0725 121.785 79.4627 110.074 73.7408C98.3634 68.0189 88.3954 64.3517 87.81 65.5498C87.2246 66.748 96.2435 72.3577 107.954 78.0796C119.665 83.8015 129.633 87.4687 130.219 86.2706Z" fill="#D0F500" stroke="black" stroke-miterlimit="10"/>
<path d="M110.086 73.7058C105.555 71.494 101.287 69.5865 97.7223 68.1511L94.6582 69.4122C102.811 73.5853 115.543 79.4188 124.703 81.6242C121.062 79.365 115.907 76.548 110.086 73.7058Z" fill="#A66CFF"/>
<path d="M130.219 86.2706C130.804 85.0725 121.785 79.4627 110.074 73.7408C98.3634 68.0189 88.3954 64.3517 87.81 65.5498C87.2246 66.748 96.2435 72.3577 107.954 78.0796C119.665 83.8015 129.633 87.4687 130.219 86.2706Z" stroke="black" stroke-miterlimit="10"/>
<path d="M94.1687 65.0142L94.0039 69.1018L141.166 70.9871L141.331 66.8996C141.356 66.2342 130.82 65.2709 117.797 64.7481C104.774 64.2285 94.194 64.3457 94.1687 65.0111V65.0142Z" fill="#D0F500" stroke="black" stroke-miterlimit="10"/>
<path d="M141.168 70.9841C141.194 70.3179 130.658 69.3557 117.635 68.8349C104.611 68.3141 94.0319 68.4319 94.0053 69.0982C93.9786 69.7644 104.515 70.7266 117.538 71.2474C130.562 71.7682 141.141 71.6504 141.168 70.9841Z" fill="#A66CFF" stroke="black" stroke-miterlimit="10"/>
<path d="M19.8186 158.045C30.2118 158.045 38.6371 149.62 38.6371 139.227C38.6371 128.834 30.2118 120.408 19.8186 120.408C9.42535 120.408 1 128.834 1 139.227C1 149.62 9.42535 158.045 19.8186 158.045Z" fill="#EBE9E9" stroke="black" stroke-linecap="round" stroke-linejoin="round"/>
<path d="M13.9856 126.445C13.9824 127.509 14.8728 128.355 15.9343 128.301C19.7145 128.108 28.7103 128.549 33.8118 136.334C34.2776 137.047 35.301 137.107 35.8492 136.458C36.9551 135.146 36.6414 134.11 36.4639 133.739C36.3942 133.59 36.3277 133.435 36.2706 133.279C34.6325 128.755 31.1533 124.921 26.337 122.988C23.1525 121.708 19.8127 121.435 16.6694 122.012C15.5731 122.214 14.67 123.007 14.331 124.068C14.0711 124.886 13.9856 125.722 13.9824 126.445H13.9856Z" fill="#A66CFF"/>
<path d="M19.1407 145.124C16.1717 144.915 15.4714 144.839 13.228 144.531C13.2111 143.162 13.3431 139.574 13.6241 133.767C15.9689 135.77 16.4315 136.099 22.0875 140.127C20.7187 142.554 20.4683 142.969 19.1439 145.124" fill="black"/>
<path d="M22.9278 151.201C19.2807 149.313 16.6317 147.817 13.875 145.764C15.7382 145.992 16.5081 146.084 19.7909 146.271C21.2389 143.958 21.5716 143.406 22.7472 141.353C22.8454 144.636 22.7694 147.922 22.9278 151.204" fill="black"/>
<path d="M219.443 105.183C217.342 109.182 215.821 113.368 214.965 117.598C213.72 123.742 213.955 129.731 215.545 135.13L240.536 124.597C240.688 122.538 241.385 120.066 242.732 117.481L219.443 105.183Z" fill="#D0F500"/>
<path d="M219.912 121.654C222.016 113.228 218.553 109.261 217.045 114.445C216.142 117.553 215.416 121.308 215.416 125.396C215.416 128.789 215.85 131.876 216.636 134.671L219.519 133.457C218.822 129.705 218.895 125.725 219.912 121.657V121.654Z" fill="#A66CFF"/>
<path d="M234.76 113.269C231.528 118.548 229.675 124.116 229.326 129.318L236.424 126.327C236.791 122.924 237.954 119.375 239.862 115.963L234.76 113.269Z" fill="#A66CFF"/>
<path d="M219.443 105.183C217.342 109.182 215.821 113.368 214.965 117.598C213.72 123.742 213.955 129.731 215.545 135.13L240.536 124.597C240.688 122.538 241.385 120.066 242.732 117.481L219.443 105.183Z" stroke="black" stroke-miterlimit="10"/>
<path d="M232.998 107.712C226.566 104.315 220.498 103.184 219.443 105.18C218.388 107.179 222.744 111.552 229.177 114.949C235.609 118.346 241.677 119.477 242.732 117.48C243.787 115.481 239.43 111.108 232.998 107.712Z" fill="#A66CFF" stroke="black" stroke-miterlimit="10"/>
<path d="M256.034 82.1724C253.844 75.2363 249.858 70.3122 247.127 71.1741C239.877 73.465 232.884 77.5778 226.876 83.1578C222.206 87.4957 218.371 92.4958 215.574 97.8223C214.518 99.8217 218.875 104.194 225.308 107.591C231.74 110.988 237.808 112.119 238.863 110.123C240.188 107.582 242.136 104.93 244.798 102.458C248.207 99.2926 251.823 97.3154 255.058 96.2951C257.786 95.4332 258.223 89.1117 256.034 82.1756V82.1724Z" fill="#D0F500"/>
<path d="M252.08 74.1271C251.298 73.1702 250.163 72.0169 249.396 71.5732C243.861 73.3762 237.108 76.7222 238.021 77.6348C239.247 78.8611 243.199 75.6639 252.08 74.1239V74.1271Z" fill="#A66CFF"/>
<path d="M234.791 110.991C236.512 107.176 239.145 103.45 242.627 100.196C247.12 95.9971 252.301 93.2594 257.339 92.0712C257.533 90.3094 257.406 88.1262 256.946 85.7529C250.761 87.4735 244.43 90.9875 238.876 96.1809C234.601 100.173 231.287 104.692 229.012 109.321C231.163 110.193 233.156 110.763 234.791 110.991Z" fill="#A66CFF"/>
<path d="M229.776 82.5304C227.773 84.3366 229.168 85.5375 231.005 83.8835C232.244 82.7681 233.563 81.77 234.919 80.8764C237.422 79.2224 236.357 77.7395 233.816 79.4221C232.482 80.3061 231.113 81.3264 229.776 82.5304Z" fill="#A66CFF"/>
<path d="M256.034 82.1724C253.844 75.2363 249.858 70.3122 247.127 71.1741C239.877 73.465 232.884 77.5778 226.876 83.1578C222.206 87.4957 218.371 92.4958 215.574 97.8223C214.518 99.8217 218.875 104.194 225.308 107.591C231.74 110.988 237.808 112.119 238.863 110.123C240.188 107.582 242.136 104.93 244.798 102.458C248.207 99.2926 251.823 97.3154 255.058 96.2951C257.786 95.4332 258.223 89.1117 256.034 82.1756V82.1724Z" stroke="black" stroke-miterlimit="10"/>
</svg>
