<svg width="93" height="26" viewBox="0 0 93 26" fill="none" xmlns="http://www.w3.org/2000/svg">
<path d="M12.6319 0C5.65474 0 0 5.65609 0 12.6319C0 19.609 5.65474 25.2638 12.6319 25.2638C19.6077 25.2638 25.2638 19.609 25.2638 12.6319C25.2638 5.65609 19.6077 0 12.6319 0ZM16.4974 16.5856H8.7664C7.74243 16.5856 7.10244 15.4774 7.61376 14.5909L11.4806 7.89535C11.9919 7.01015 13.2712 7.01015 13.7825 7.89535L17.648 14.5909C18.16 15.4774 17.5207 16.5856 16.4974 16.5856Z" fill="white"/>
<path d="M29.5938 12.6455C29.5938 8.59944 32.0553 5.79834 36.0731 5.79834C39.5815 5.79834 41.845 7.72232 42.1562 10.6366H39.6947C39.3552 8.91067 38.1102 8.00526 36.0448 8.00526C33.5549 8.00526 32.027 9.7312 32.027 12.6455C32.027 15.5314 33.5549 17.2857 36.0448 17.2857C38.1102 17.2857 39.3552 16.3803 39.6947 14.7392H42.1562C41.845 17.5969 39.5815 19.4926 36.0731 19.4926C32.0553 19.4926 29.5938 16.6915 29.5938 12.6455Z" fill="white"/>
<path d="M44.6855 19.1527V6.10919H47.1471V9.08005C47.6564 6.87313 49.3258 5.91113 50.9668 5.91113C51.4195 5.91113 51.8439 5.93943 52.1551 6.02431V8.28782C51.7307 8.20294 51.3912 8.20294 50.9385 8.20294C48.3638 8.20294 47.1471 10.5513 47.1471 13.4656V19.1527H44.6855Z" fill="white"/>
<path d="M65.5908 13.3533H55.4899C55.5465 15.8714 57.1027 17.3427 59.5925 17.3427C61.3185 17.3427 62.5068 16.6637 63.0444 15.4187H65.506C65.0533 17.8237 62.6483 19.4931 59.5925 19.4931C55.5748 19.4931 53.0566 16.8334 53.0566 12.6176C53.0566 8.48672 55.6031 5.77051 59.4794 5.77051C63.1576 5.77051 65.6474 8.31696 65.6474 11.9103C65.6474 12.3913 65.6474 12.7591 65.5908 13.3533ZM63.2425 11.4576C63.2425 9.16578 61.8278 7.75108 59.4511 7.75108C57.0744 7.75108 55.6031 9.25066 55.4899 11.4576H63.2425Z" fill="white"/>
<path d="M67.2949 15.249H69.7282C69.7282 16.5222 70.9165 17.5125 72.8405 17.5125C74.2835 17.5125 75.2455 16.8051 75.2455 15.6451C75.2455 14.768 74.8494 14.1738 73.2932 13.7777L70.6336 13.0986C68.7096 12.561 67.691 11.3161 67.691 9.5053C67.691 7.29838 69.7282 5.77051 72.5576 5.77051C75.6699 5.77051 77.5656 7.27009 77.5656 9.70336H75.1606C75.1606 8.45843 74.1703 7.6662 72.4727 7.6662C71.1146 7.6662 70.1243 8.31696 70.1243 9.39213C70.1243 10.2127 70.6053 10.8068 72.02 11.2029L74.7079 11.9386C76.6319 12.4762 77.7354 13.7494 77.7354 15.5602C77.7354 18.0501 75.7831 19.4931 72.6991 19.4931C69.5018 19.4931 67.2949 17.654 67.2949 15.249Z" fill="white"/>
<path d="M79.418 12.6459C79.418 8.82625 81.9644 5.77051 86.2085 5.77051C90.4243 5.77051 92.999 8.82625 92.999 12.6459C92.999 16.4373 90.4243 19.4931 86.2085 19.4931C81.9644 19.4931 79.418 16.4373 79.418 12.6459ZM90.5375 12.6459C90.5375 10.0146 88.953 7.97743 86.2085 7.97743C83.464 7.97743 81.8512 10.0146 81.8512 12.6459C81.8512 15.249 83.464 17.2861 86.2085 17.2861C88.953 17.2861 90.5375 15.249 90.5375 12.6459Z" fill="white"/>
</svg>
